<svg width="328.67969206916115" height="261.35625" viewBox="0 0 100 79.51700585900669" fill="#38bdf8">
  <defs/>
  <g transform="matrix(2.8411088544048764,0,0,2.8411088544048764,0.0008501032858557987,-34.12734560769583)">
    <path d="M9.9805 12.030999999999999 l5.3711 0 l0 9.1797 l-0.54688 0 l0 9.9805 l0.54688 0 l0 8.0273 l-12.891 0 l0 -1.7188 l-2.4609 0 l0 -3.1641 l1.4844 0 l0 -0.54688 l-1.4844 0 l0 -0.70313 l5.293 0 l0 1.9531 l4.7266 0 l0 -2.6953 c0 -0.92447 -0.013027 -2.1939 -0.039063 -3.8086 l-4.1406 0 l0 -0.41016 l4.1406 0 l0 -16.094 z M10.02 28.125 l0 0.41016 l1.582 0 l0 -0.41016 l-1.582 0 z M5.4297 39.62891 l6.8555 0 l0 0.37109 l-6.8555 0 l0 -0.37109 z M15.900393125 12.012 l5.9375 -0.000019073 c0.039063 0.3125 0.78775 3.9453 2.2461 10.898 l1.2305 0 l0 1.0742 l-1.4844 0 l0 -1.0742 l-2.0898 0 l0 1.0742 l2.0898 0 l0 5.0195 l0.66406 0 l0 2.5977 l1.6406 0 l0 -3.8281 l0.60547 0 l0 -3.7891 l1.1914 0 l0 -1.0742 l-0.9375 0 c1.4713 -6.9531 2.2266 -10.586 2.2656 -10.898 l5.9375 0 c-2.1484 9.3359 -3.2227 14.095 -3.2227 14.277 l0 4.8633 l-1.6406 0 l0 0.97656 l1.2305 0 l0 2.8516 l-2.207 0 l0 5.0195 l-6.9531 0 c-0.078125 0 -0.26693 -0.71615 -0.56641 -2.1484 l1.7969 0 l0 -1.1719 l-2.0117 0 c-0.078125 0 -0.26041 -0.75521 -0.54688 -2.2656 c-0.14322 -0.45572 -1.8685 -7.9232 -5.1758 -22.402 z M29.670203125 35.1953 l0.60549 0 c0.16928 0 0.28646 0.097656 0.35156 0.29297 l-0.13672 0.3125 c0.065098 0 0.11066 0.16928 0.1367 0.50781 l-0.19531 0 c-0.065098 0 -0.11719 -0.13672 -0.15625 -0.41016 l-0.35156 0 l0 0.41016 l-0.25391 0 l0 -1.1133 z M29.924203125 35.3906 l0 0.25391 l0.3125 0 c0.065098 0 0.097656 -0.032559 0.097656 -0.097656 l0 -0.058594 c0 -0.065098 -0.032559 -0.097656 -0.097656 -0.097656 l-0.3125 0 z M29.670203125 36.7187 l0.82031 0 l0 0.15625 c0 0.065098 -0.039063 0.097656 -0.11719 0.097656 l-0.44922 0 l0 0.15625 l0.44922 0 l0 0.25391 l-0.44922 0 l0 0.46875 l-0.25391 0 l0 -1.1328 z M29.670203125 38.2617 l0.25391 0 l0 1.1328 l-0.25391 0 l0 -1.1328 z"/>
  </g>
</svg>
