<svg width="309.0029280963865" height="261.35625" viewBox="0 0 100 84.58050919131608"><defs></defs><g  transform="matrix(2.3313256408646494,0,0,2.3313256408646494,7.833265025366364,-8.765777717441667)" ><path d="M4.88 39.92 c-0.08 0 -0.16 -0.04 -0.36 -0.16 c-0.16 -0.08 -0.36 -0.12 -0.44 -0.12 c-0.2 0 -1.72 -0.88 -1.72 -1 l-0.76 -0.72 c-0.4 -0.32 -0.92 -0.84 -1.12 -1.08 l-0.68 -0.72 c-0.16 -0.12 -0.28 -0.28 -0.28 -0.36 c-0.04 -0.08 -0.08 -0.12 -0.12 -0.12 c-0.16 0 -1.16 -1.84 -1.32 -2.4 l-0.28 -0.76 c-0.12 -0.44 -0.2 -1.04 -0.2 -1.6 c0 -0.24 0 -0.48 0.04 -0.68 c0 -0.2 0.08 -0.56 0.12 -0.84 c0.04 -0.24 0.08 -0.52 0.12 -0.52 c0.04 -0.04 0.08 -0.24 0.12 -0.48 c0.12 -0.52 0.52 -1.6 0.6 -1.68 c0.04 0 0.08 -0.12 0.08 -0.24 s0.12 -0.32 0.2 -0.4 c0.12 -0.12 0.2 -0.28 0.2 -0.36 c0 -0.12 0.08 -0.2 0.16 -0.2 c0.16 0 0.32 -0.12 0.32 -0.28 l0 -0.04 c-0.04 -0.08 -0.04 -0.12 -0.08 -0.12 l-0.04 0.08 c-0.04 0.04 -0.04 0.08 -0.08 0.08 l0 -0.12 c0 -0.08 0.04 -0.16 0.16 -0.16 l0.04 0 c0.12 0 0.16 0 0.16 -0.04 l-0.16 -0.24 c0 -0.08 0.04 -0.12 0.16 -0.24 s0.2 -0.28 0.2 -0.32 l0 -0.04 c0 -0.04 0.04 -0.12 0.12 -0.2 c0.16 -0.2 0.36 -0.56 0.36 -0.68 l0.04 -0.04 l0.04 0.04 l0.08 0 l0 -0.04 c0 -0.16 0.4 -0.6 0.6 -0.6 c0.12 0 0.24 -0.08 0.24 -0.16 s-0.04 -0.12 -0.12 -0.12 l-0.04 -0.04 l0.08 -0.16 c0.04 -0.12 0.12 -0.16 0.2 -0.16 l0.04 0 l0 -0.08 c0 -0.16 0.6 -1 0.84 -1.16 l0.2 -0.08 c0.04 0 0.04 0.04 0.04 0.04 l-0.04 0.12 l-0.04 0.08 l0.16 0 c0.08 -0.04 0.08 -0.08 0.08 -0.16 s-0.04 -0.16 -0.16 -0.16 c-0.04 0 -0.04 0 -0.04 -0.04 l0.12 -0.12 c0.12 -0.12 0.32 -0.16 0.48 -0.16 l0.12 0 c0.08 0 0.12 0 0.12 -0.04 l-0.04 -0.08 l0.08 -0.16 l0.12 -0.08 c0 -0.04 -0.04 -0.08 -0.16 -0.2 l-0.2 -0.16 l0.16 -0.08 c0.12 0 0.2 0 0.2 0.04 l0.04 0.08 l0.12 -0.04 l0.04 0.08 l0.08 0.04 l0 -0.04 c0 -0.04 -0.04 -0.12 -0.12 -0.2 l-0.12 -0.2 c0 -0.08 0.08 -0.12 0.2 -0.24 s0.16 -0.16 0.24 -0.16 c0.04 0 0.04 0 0.08 0.08 c0.04 0.04 0.04 0.08 0.08 0.08 l0.04 -0.2 c0 -0.08 -0.04 -0.12 -0.08 -0.12 c-0.08 -0.04 -0.08 -0.08 -0.08 -0.12 c0 -0.08 0.12 -0.2 0.28 -0.2 s0.24 -0.08 0.28 -0.24 l0.04 -0.16 l0.04 0.24 c0.04 0.12 0.04 0.2 0.12 0.2 c0.04 0 0.12 -0.08 0.32 -0.28 l0.32 -0.28 c0.04 0 0.08 0.04 0.08 0.08 c0.04 0.08 0.04 0.08 0.08 0.08 l0.16 -0.04 l0.12 -0.08 l-0.04 0.08 c-0.04 0.08 -0.04 0.28 -0.04 0.4 l0.04 0.2 l-0.04 0.08 c-0.04 0 -0.2 0.12 -0.36 0.28 l-0.2 0.28 l0.04 0.04 l0.32 -0.16 c0.04 0 0.04 0 0.04 0.04 l-0.08 0.24 l0.04 0.08 l-0.2 0.16 c-0.16 0.08 -0.24 0.12 -0.24 0.2 c0 0.04 0.08 0.12 0.24 0.2 l0.2 0.08 l-0.2 0 l-0.16 0.04 l0.04 0.04 l0.08 0.16 l-0.04 0.24 l-0.08 0.2 l-0.04 -0.04 l-0.2 0.12 l-0.08 -0.04 c-0.08 -0.08 -0.16 -0.12 -0.2 -0.12 l-0.04 0.08 l0.08 0.16 l-0.12 0 s-0.04 0.04 -0.04 0.12 c0.04 0.08 0.08 0.12 0.16 0.12 l0.08 0.04 l-0.12 0.28 l0 0.16 l-0.12 -0.16 c-0.04 -0.12 -0.16 -0.24 -0.28 -0.28 c-0.04 0 -0.08 0 -0.08 0.04 l0.08 0.2 l0.04 0.16 c0 0.08 0 0.12 -0.08 0.16 c-0.04 0.04 -0.08 0.12 -0.08 0.2 l0.04 0.2 c0 0.04 -0.04 0.08 -0.08 0.12 c-0.08 0.04 -0.12 0.16 -0.12 0.24 l0 0.08 c0 0.08 -0.04 0.12 -0.2 0.12 c-0.12 0 -0.16 0 -0.16 0.08 l0.04 0.08 c0.04 0.12 0.16 0.24 0.2 0.28 l0.04 0.04 l-0.44 -0.04 c-0.16 0 -0.2 0.04 -0.2 0.12 l0 0.04 c0 0.08 -0.04 0.16 -0.12 0.2 c-0.12 0.08 -0.16 0.16 -0.16 0.24 s0.04 0.12 0.12 0.12 c0.04 0 0.08 -0.04 0.08 -0.12 l0 -0.04 l0.2 0.16 l0 -0.04 c0 -0.08 0.04 -0.16 0.12 -0.16 l0.04 0 l0.04 0.04 l-0.08 0.28 c-0.12 0.48 -0.2 0.56 -0.52 0.8 l-0.2 0.12 c-0.08 0 -0.12 -0.08 -0.12 -0.28 c0 -0.04 0 -0.04 -0.04 -0.04 l-0.16 0.04 c-0.04 0 -0.08 -0.04 -0.08 -0.08 s-0.08 -0.08 -0.12 -0.08 l-0.04 0.04 l0.04 0.16 c0.04 0.08 0.08 0.12 0.12 0.12 l0.04 0 c0.04 0 0.08 0 0.12 0.04 c0 0.08 -0.12 0.16 -0.32 0.24 c-0.16 0.08 -0.28 0.2 -0.28 0.32 c0 0.08 0.08 0.16 0.16 0.2 s0.12 0.12 0.12 0.2 s-0.04 0.12 -0.12 0.12 s-0.12 0.04 -0.12 0.08 s-0.12 0.08 -0.28 0.08 s-0.28 -0.04 -0.28 -0.08 l-0.04 -0.04 l-0.08 0.04 l-0.04 0.12 l0.12 0.28 l-0.24 -0.04 l0 0.04 c0.04 0.04 0.12 0.08 0.2 0.08 l0.52 -0.04 c0.04 0 0.08 0 0.08 0.04 l-0.24 0.32 c-0.16 0.24 -0.36 0.4 -0.4 0.4 l-0.32 0 c-0.12 0 -0.16 0.04 -0.16 0.12 s0.08 0.16 0.2 0.16 l0.16 -0.04 l-0.04 -0.08 c0 -0.04 0 -0.08 0.04 -0.08 c0.16 0 0.2 0.12 0.2 0.24 s0 0.2 -0.08 0.28 c-0.12 0.12 -0.24 0.4 -0.32 0.6 c-0.04 0.16 -0.12 0.28 -0.2 0.28 l-0.12 0 l-0.04 0.04 l0.04 0.08 l0.04 0.16 c0 0.2 -0.12 0.44 -0.28 0.44 l-0.08 0 c-0.04 0 -0.08 0 -0.08 0.04 l0 0.04 l-0.08 0.04 c-0.08 0 -0.2 0.08 -0.32 0.16 l-0.08 0.12 l0.04 0.04 l0.76 -0.2 c0 0.04 0 0.08 -0.08 0.16 l-0.12 0.24 l0 0.04 c0 0.12 -0.04 0.36 -0.12 0.64 c-0.16 0.56 -0.24 1.32 -0.24 1.84 c0 0.32 0.04 0.56 0.12 0.56 c0.04 0 0.16 0.4 0.24 0.88 c0.12 0.68 0.24 0.96 0.44 1.24 l0.28 0.48 c0.04 0.2 0.48 0.68 1 1.08 c0.24 0.2 0.44 0.32 0.64 0.32 s0.4 -0.08 0.68 -0.24 c0.24 -0.12 0.48 -0.2 0.52 -0.2 l0.04 0 l0 -0.08 c0 -0.16 0.2 -0.28 0.44 -0.28 l0.08 0 l-0.16 -0.12 c0 -0.08 0.08 -0.16 0.24 -0.28 c0.2 -0.16 0.4 -0.24 0.44 -0.24 c0.08 0 0.12 -0.04 0.12 -0.12 l-0.04 -0.16 c0 -0.16 0.4 -0.6 0.6 -0.64 c0.12 -0.04 0.16 -0.08 0.16 -0.16 l0 -0.08 c0 -0.08 0.04 -0.12 0.16 -0.16 s0.16 -0.08 0.16 -0.16 l-0.04 -0.2 c0 -0.08 0.08 -0.2 0.24 -0.32 c0.12 -0.12 0.2 -0.28 0.2 -0.32 l0 -0.08 c0 -0.04 0.08 -0.2 0.2 -0.28 c0.2 -0.12 0.28 -0.24 0.28 -0.28 s-0.04 -0.08 -0.08 -0.08 l-0.04 -0.04 c0 -0.12 0.32 -0.6 0.6 -0.8 l0.08 -0.08 l-0.12 0.04 l-0.04 -0.08 c0 -0.08 0.04 -0.16 0.12 -0.28 s0.12 -0.24 0.12 -0.28 l0 -0.04 c0 -0.08 0.08 -0.24 0.2 -0.4 c0.16 -0.2 0.24 -0.36 0.24 -0.48 l-0.04 -0.24 l0.04 -0.04 l0.12 0 c0.12 0 0.16 0 0.16 -0.08 l-0.08 -0.24 c0 -0.04 0.04 -0.08 0.08 -0.08 s0.12 -0.08 0.12 -0.24 c0 -0.12 0.08 -0.36 0.2 -0.52 c0.08 -0.08 0.12 -0.24 0.12 -0.28 l0 -0.08 s0.04 -0.12 0.12 -0.16 c0.08 -0.12 0.12 -0.24 0.12 -0.32 l0 -0.04 c0 -0.08 0.04 -0.2 0.12 -0.28 c0.08 -0.12 0.16 -0.28 0.16 -0.4 s0.04 -0.24 0.08 -0.28 c0.12 -0.12 0.28 -0.6 0.28 -0.8 l0 -0.16 c0 -0.08 0.04 -0.16 0.08 -0.28 c0.12 -0.12 0.24 -0.36 0.28 -0.56 c0 -0.2 0.08 -0.36 0.12 -0.36 c0.08 0 0.16 -0.32 0.16 -0.56 l0 -0.08 l0.16 -0.32 c0.08 -0.12 0.16 -0.32 0.16 -0.48 s0.08 -0.36 0.16 -0.48 l0.16 -0.28 l0 -0.04 c0 -0.2 0.16 -0.76 0.28 -0.96 l0.08 -0.2 l-0.08 -0.2 c0 -0.16 0.16 -0.44 0.32 -0.52 c0.08 -0.04 0.12 -0.04 0.12 -0.08 l-0.08 -0.12 c-0.04 -0.04 -0.08 -0.08 -0.08 -0.12 s0.04 -0.08 0.08 -0.12 c0.16 -0.12 0.24 -0.4 0.24 -0.64 l0 -0.2 c0 -0.24 0.08 -0.64 0.16 -0.64 c0.04 0 0.04 -0.04 0.04 -0.08 l0 -0.08 c0 -0.08 0.04 -0.28 0.12 -0.36 c0.04 -0.08 0.08 -0.16 0.08 -0.24 l-0.04 -0.12 l0.08 -0.16 c0.16 -0.2 0.24 -0.72 0.28 -1.28 c0.04 -0.28 0.08 -0.52 0.16 -0.6 c0.04 -0.04 0.08 -0.16 0.08 -0.24 c0 -0.04 0.04 -0.4 0.12 -0.76 l0.16 -0.72 l0 -0.08 c0 -0.12 0.04 -0.28 0.08 -0.44 l0.12 -0.64 c0 -0.16 0.04 -0.4 0.08 -0.56 c0.04 -0.32 0.2 -1.8 0.28 -2.96 l0 -0.4 c0 -0.64 -0.04 -1.72 -0.08 -2 l-0.12 0 c-0.24 0 -0.96 0.04 -1.48 0.12 c-0.24 0.04 -0.6 0.12 -0.76 0.2 s-0.36 0.12 -0.44 0.12 c-0.28 0 -1.44 0.28 -2.6 0.6 l-1.56 0.4 c-0.28 0.08 -0.52 0.16 -0.56 0.2 c0 0.04 -0.16 0.08 -0.28 0.08 c-0.44 0 -1 0.16 -1 0.32 l0.04 0.12 l-0.08 0.04 c-0.08 0 -0.12 -0.04 -0.12 -0.04 l0 -0.04 c0 -0.08 -0.08 -0.12 -0.2 -0.12 c-0.16 0 -0.36 0.04 -0.48 0.12 c-0.04 0.04 -0.2 0.08 -0.32 0.08 l-0.12 0 c-0.16 0 -0.44 0.04 -0.6 0.12 c-0.16 0.04 -0.24 0.08 -0.24 0.16 l0.08 0.12 c0 0.04 -0.12 0.04 -0.44 0.04 l-0.36 0 l0.12 0.04 c0.12 0.04 0.16 0.04 0.16 0.08 s-0.08 0.04 -0.28 0.12 c-0.4 0.12 -0.68 0.16 -0.84 0.16 c-0.08 0 -0.16 0 -0.16 -0.04 s-0.56 -0.04 -1.2 -0.04 l-0.84 0.04 c-0.36 0 -0.48 -0.04 -0.64 -0.16 c-0.12 -0.12 -0.4 -0.28 -0.56 -0.36 s-0.32 -0.2 -0.36 -0.28 c-0.08 -0.08 -0.2 -0.24 -0.28 -0.4 c-0.12 -0.16 -0.24 -0.44 -0.28 -0.68 s-0.16 -0.6 -0.24 -0.84 l-0.08 -0.32 c0 -0.08 0.04 -0.08 0.12 -0.12 s0.88 -0.08 1.76 -0.08 s1.64 -0.04 1.68 -0.08 s0.36 -0.12 0.68 -0.12 s0.6 -0.04 0.68 -0.12 c0.04 -0.04 0.24 -0.08 0.44 -0.08 l0.16 0 c0.08 0 0.16 -0.04 0.16 -0.08 s0.08 -0.08 0.2 -0.08 c0.36 0 2.16 -0.4 2.24 -0.48 c0.04 -0.08 0.24 -0.08 0.44 -0.08 c0.16 0 0.32 -0.04 0.32 -0.12 l0.08 -0.04 l0.16 0 c0.08 0 0.2 -0.04 0.28 -0.08 c0.2 -0.12 0.76 -0.24 1.36 -0.32 c0.2 0 0.52 -0.12 0.76 -0.2 c0.2 -0.08 0.52 -0.16 0.72 -0.16 c0.16 0 0.44 -0.04 0.6 -0.12 s0.44 -0.16 0.68 -0.2 c0.24 0 0.44 -0.04 0.44 -0.08 c0.04 -0.04 0.32 -0.08 0.64 -0.08 s0.56 -0.04 0.56 -0.08 s0.08 -0.04 0.24 -0.04 l0.12 0 l0.24 -0.04 c0.04 -0.08 0.48 -0.12 0.92 -0.16 l0.48 -0.04 c0.4 0 0.52 0.08 1 0.28 c0.56 0.28 0.68 0.4 1.04 0.92 c0.36 0.48 0.48 0.72 0.48 0.84 c0 0.08 0 0.08 -0.04 0.12 c-0.04 0 -0.04 0.04 -0.04 0.12 c0 0.04 0 0.08 0.04 0.12 l0.04 0.16 l-0.04 0.08 c-0.04 0 -0.04 0.04 -0.04 0.08 l0.08 0.16 c0.08 0.08 0.08 0.08 0.08 0.12 l-0.08 -0.04 c-0.04 0 -0.04 0 -0.04 0.08 l0 0.12 c0.12 0.68 0.24 1.76 0.24 1.96 c0 0.16 0 0.36 0.04 0.48 l0.04 0.84 l-0.04 0.84 c0 0.08 0 0.2 0.04 0.28 l0 0.08 l-0.16 -0.08 l0.04 0.08 l0.04 0.16 l-0.08 0.32 c-0.08 0.12 -0.08 0.2 -0.08 0.28 c0 0.04 0 0.04 0.04 0.04 s0.08 0 0.08 0.04 l-0.08 0.08 c-0.08 0.04 -0.12 0.16 -0.12 0.24 l0 0.12 l-0.04 0.2 l-0.04 0.08 l0.04 0 c0.04 0 0.08 0.04 0.08 0.08 l0 0.08 c0 0.08 0.04 0.16 0.08 0.16 s0.08 0.04 0.08 0.08 l0 0.04 c0 0.08 -0.04 0.12 -0.12 0.12 l-0.04 -0.04 l-0.04 0.04 l0.04 0.2 c0 0.08 -0.04 0.12 -0.12 0.12 s-0.08 0.04 -0.08 0.08 c0 0.08 0.04 0.2 0.16 0.32 c0.04 0.04 0.08 0.08 0.08 0.12 l-0.04 0.04 c-0.04 0.04 -0.08 0.08 -0.08 0.12 l0.08 0.16 l-0.04 0.04 l-0.2 -0.04 c-0.04 0 -0.08 0 -0.08 0.08 l0 0.04 c0 0.08 0.08 0.2 0.12 0.28 c0.04 0.04 0.04 0.08 0.04 0.16 s-0.04 0.12 -0.08 0.12 l-0.08 0 c-0.08 0 -0.16 0.2 -0.2 0.4 l-0.2 0.72 l-0.12 0.68 c0 0.24 -0.08 0.56 -0.16 0.68 l-0.08 0.24 l0.08 0.16 l-0.04 0.08 c-0.04 0.04 -0.16 0.28 -0.2 0.56 l-0.36 1.28 c-0.36 1.44 -0.48 1.8 -0.52 2.08 l0 0.24 l0.2 -0.12 l0.08 0.04 l0 0.04 c0 0.04 -0.04 0.08 -0.08 0.12 c-0.04 0 -0.08 0.12 -0.08 0.24 l0 0.04 c0 0.08 -0.12 0.16 -0.24 0.24 c-0.2 0.12 -0.28 0.28 -0.32 0.44 c0 0.16 -0.16 0.6 -0.28 0.96 c-0.12 0.32 -0.16 0.56 -0.16 0.72 l0.04 0.24 c0 0.08 -0.04 0.16 -0.16 0.24 c-0.16 0.12 -0.64 1.4 -0.64 1.72 l0 0.04 c0 0.04 -0.04 0.12 -0.12 0.16 l-0.08 0.16 l0 0.08 c0 0.12 -0.04 0.28 -0.12 0.44 c-0.04 0.08 -0.04 0.12 -0.04 0.2 l0.04 0.08 c0.04 0 0.08 0.04 0.08 0.08 c0 0.12 -0.12 0.28 -0.28 0.28 c-0.08 0 -0.08 0.04 -0.08 0.12 s0.04 0.2 0.16 0.28 l0.08 0.12 c0 0.08 -0.04 0.12 -0.12 0.2 c-0.12 0.12 -0.24 0.16 -0.28 0.16 s-0.08 0 -0.08 -0.04 l0.08 -0.24 l-0.08 0.08 c-0.08 0.08 -0.12 0.24 -0.12 0.4 c0 0.12 -0.12 0.36 -0.2 0.52 c-0.08 0.08 -0.16 0.24 -0.16 0.28 l0 0.04 s-0.08 0.28 -0.24 0.6 c-0.12 0.32 -0.2 0.64 -0.2 0.76 s0 0.2 -0.08 0.2 c-0.04 0 -0.04 0.04 -0.04 0.12 l0 0.08 c0 0.12 -0.04 0.28 -0.08 0.36 l-0.04 0.12 c0 0.04 0 0.04 0.04 0.04 c0.08 0 0.16 0.08 0.16 0.16 l0 0.12 l-0.16 -0.16 c-0.04 0 -0.04 0 -0.04 0.04 l0 0.04 c0 0.04 0 0.08 -0.04 0.08 l-0.04 0 c-0.04 0 -0.16 0.08 -0.24 0.16 c-0.08 0.12 -0.2 0.24 -0.24 0.24 s-0.04 0.12 -0.04 0.28 l0.04 0.16 c0 0.28 -0.16 0.56 -0.44 0.64 c-0.12 0.04 -0.16 0.12 -0.16 0.2 c0 0.04 0 0.08 0.08 0.08 c0 0.04 -0.08 0.2 -0.2 0.36 l-0.44 0.64 c-0.08 0.16 -0.2 0.4 -0.28 0.48 l-0.08 0.32 c0 0.08 -0.04 0.12 -0.04 0.12 c-0.12 0 -0.32 0.28 -0.32 0.36 c0 0.16 -0.96 1.32 -1.08 1.32 c-0.04 0 -0.28 0.2 -0.48 0.48 l-0.36 0.4 l0 -0.08 s0 -0.04 -0.04 -0.04 l-0.12 0.04 l-0.56 0.12 c-0.2 0 -0.4 0.04 -0.44 0.12 s-0.08 0.12 -0.16 0.12 z M13.28 6.439999999999998 c0.12 0 0.16 -0.04 0.16 -0.08 s-0.08 -0.08 -0.16 -0.08 l-0.24 0.08 l-0.04 0.04 c0 0.04 0.08 0.04 0.2 0.04 l0.08 0 z M11.92 6.600000000000001 l0.32 -0.08 l-0.16 -0.04 c-0.08 0 -0.12 0 -0.16 0.04 l-0.04 0.04 z M9.88 7.039999999999999 c0.04 0 0.08 0 0.08 -0.04 l-0.04 -0.04 l-0.12 0 l0 0.04 z M9.28 7.240000000000002 c0.08 0 0.16 0 0.16 -0.04 l-0.16 -0.08 l-0.12 -0.04 l-0.04 0.08 c0 0.04 0.08 0.08 0.16 0.08 z M8.84 7.240000000000002 l0.08 -0.04 l0 -0.04 l-0.16 0 c0 0.04 0.04 0.08 0.08 0.08 z M7.4 7.920000000000002 c0.08 0 0.12 -0.04 0.12 -0.04 c-0.04 -0.04 -0.08 -0.04 -0.12 -0.04 l-0.08 0 l-0.04 0.04 c0 0.04 0.04 0.04 0.12 0.04 z M6.64 8 l0 -0.04 l-0.08 -0.04 s-0.04 0 -0.04 0.04 l0 0.04 l0.12 0 z M5.2 8.2 c0.04 0 0.08 -0.04 0.08 -0.08 l0.04 -0.08 l-0.04 -0.04 c-0.04 0 -0.08 0.08 -0.08 0.12 l-0.04 0.04 z M5.08 8.36 l0 -0.04 l-0.04 -0.08 l-0.04 0 l0 0.08 l0.04 0.04 l0.04 0 z M7.12 8.600000000000001 c-0.12 0 -0.16 0 -0.16 -0.04 l0.2 -0.16 c0 -0.04 0 -0.04 0.04 -0.04 l0.12 0.16 c0 0.08 -0.08 0.08 -0.2 0.08 z M3.8 9.36 l-0.2 0 l0.04 -0.04 c0 -0.04 0.04 -0.04 0.08 -0.04 l0.08 0.04 l0 0.04 z M1.36 9.719999999999999 l0.12 -0.04 c0.12 0 0.2 -0.04 0.2 -0.08 l-0.2 -0.04 c-0.12 0 -0.2 0.04 -0.2 0.12 z M16.44 12.68 l-0.04 -0.08 l0 -0.04 c0 -0.04 0.04 -0.08 0.08 -0.08 s0.04 0 0.04 0.04 l0 0.08 c0 0.04 -0.04 0.08 -0.08 0.08 z M16.12 15.719999999999999 c-0.04 0 -0.08 -0.08 -0.12 -0.12 l-0.04 -0.04 l0.04 -0.04 c0.08 0 0.12 0.04 0.12 0.08 l0 0.12 z M15.76 17.08 c-0.04 0 -0.12 -0.08 -0.12 -0.12 s0.04 -0.08 0.08 -0.08 s0.12 0.04 0.12 0.08 s-0.04 0.12 -0.08 0.12 z M15.68 17.44 l-0.04 -0.08 l0 -0.08 l0.04 0 c0.04 0.04 0.04 0.12 0.04 0.12 z M5.12 17.72 c-0.12 0 -0.2 -0.04 -0.24 -0.08 c0 -0.08 0.12 -0.16 0.28 -0.16 c0.04 0 0.08 0 0.12 0.04 c0.04 0 0.04 0.04 0.04 0.08 l0 0.04 c0 0.04 -0.12 0.08 -0.2 0.08 z M5.68 18.44 c0.04 0 0.08 -0.04 0.08 -0.12 l0 -0.04 l-0.08 -0.04 c-0.04 0 -0.08 0.04 -0.08 0.08 c0.04 0.08 0.04 0.12 0.08 0.12 z M4.52 18.72 l0.08 -0.04 l0 -0.04 l-0.16 0 c0 0.04 0 0.08 0.08 0.08 z M5.96 18.8 l-0.08 -0.08 c0 -0.04 0 -0.08 0.04 -0.08 l0.04 0 l0.04 0.08 z M4.04 19.12 c0.04 0 0.08 -0.04 0.08 -0.12 c-0.04 -0.04 -0.08 -0.08 -0.12 -0.08 l-0.08 0.04 l0 0.04 c0 0.08 0.04 0.12 0.12 0.12 z M4.92 19.76 c0.08 0 0.16 -0.04 0.16 -0.08 l0 -0.16 l-0.12 0 c-0.08 0 -0.24 0.12 -0.24 0.16 c0.04 0.04 0.12 0.08 0.2 0.08 z M5.8 19.76 c-0.04 0 -0.04 -0.04 -0.04 -0.04 l0 -0.04 l0.12 -0.08 l0.12 0 l0.04 0.04 c0 0.04 -0.04 0.04 -0.12 0.08 z M14.2 20.24 l0.04 -0.16 l-0.04 -0.08 l-0.04 0.04 c-0.08 0.04 -0.08 0.08 -0.08 0.16 c0 0.04 0.04 0.04 0.12 0.04 z M4.36 20.48 l0.12 -0.12 c0.08 -0.08 0.12 -0.16 0.12 -0.2 l-0.04 -0.08 l-0.04 0 s-0.04 0 -0.04 0.08 c-0.04 0.04 -0.08 0.12 -0.16 0.12 c-0.04 0 -0.08 0 -0.08 0.04 l0.04 0.08 c0 0.04 0.04 0.08 0.08 0.08 z M4.96 20.48 l0.2 -0.12 l0.08 -0.08 l-0.04 -0.08 l-0.04 0 c-0.04 0 -0.12 0.04 -0.16 0.12 l-0.08 0.12 z M3.92 20.92 l0.16 -0.04 c0.08 -0.08 0.16 -0.12 0.16 -0.2 l0 -0.04 c0 -0.04 0 -0.08 -0.04 -0.08 z M13.84 20.96 c0.04 0 0.12 -0.08 0.16 -0.16 l0.04 -0.08 c0 -0.04 0 -0.04 -0.04 -0.04 s-0.12 0.04 -0.2 0.12 l-0.04 0.08 c0 0.04 0.04 0.08 0.08 0.08 z M14.72 21.16 c-0.04 0 -0.08 -0.04 -0.08 -0.12 c0 -0.04 0.04 -0.08 0.08 -0.08 c0.08 0 0.08 0.04 0.08 0.08 z M5.2 21.52 c-0.04 0 -0.08 -0.04 -0.12 -0.08 c0 -0.04 0.04 -0.12 0.08 -0.12 c0.08 0 0.12 0.08 0.12 0.12 l0 0.04 z M3.72 22.12 l0.08 -0.04 c0.04 -0.04 0.08 -0.08 0.08 -0.12 s0 -0.04 -0.04 -0.04 s-0.08 0.04 -0.12 0.08 l-0.04 0.08 z M4.88 22 l-0.12 0 l0.12 -0.08 l0.12 0.04 c0 0.04 -0.04 0.04 -0.12 0.04 z M4.36 22.68 c-0.04 0 -0.08 -0.04 -0.08 -0.08 s0.04 -0.16 0.12 -0.28 c0.04 -0.12 0.08 -0.16 0.12 -0.16 l0.04 0.12 c0 0.08 0 0.24 -0.08 0.28 c-0.04 0.08 -0.08 0.12 -0.12 0.12 z M3.56 22.52 c0.08 0 0.08 -0.04 0.08 -0.12 c0 -0.04 -0.04 -0.08 -0.12 -0.08 c-0.04 0 -0.08 0.04 -0.08 0.08 c0.04 0.08 0.08 0.12 0.12 0.12 z M3.64 22.88 c0 -0.04 -0.08 -0.08 -0.2 -0.12 l-0.16 0 l-0.04 0.04 c0 0.04 0.12 0.08 0.2 0.08 l0.2 0 z M14.12 22.88 l0 -0.04 l-0.08 -0.04 l-0.08 0.04 c0 0.04 0.04 0.04 0.08 0.04 l0.08 0 z M3.24 23.28 l0.08 -0.04 l-0.04 0 c0 -0.04 -0.04 -0.04 -0.04 -0.04 c-0.04 0 -0.08 0 -0.08 0.04 z M3.84 23.28 l-0.08 -0.04 c0 -0.04 0.04 -0.04 0.04 -0.04 l0.08 0.04 z M2.76 23.48 c0.04 0 0.16 -0.04 0.2 -0.08 l0.08 -0.08 l-0.04 -0.04 c-0.04 0 -0.16 0.04 -0.24 0.12 l-0.04 0.08 l0.04 0 z M14.04 23.44 l-0.04 0 l-0.04 -0.04 l0 -0.08 l0.04 0 l0.04 0.08 l0 0.04 z M3 24.32 l0 -0.32 c0 -0.2 0 -0.4 -0.04 -0.4 l-0.08 0 c-0.04 0 -0.16 0.08 -0.16 0.16 l0.04 0.12 c0 0.04 0 0.08 -0.04 0.08 s-0.08 0.04 -0.08 0.08 l0 0.04 l0.04 0.04 l0.08 0 c0.08 0 0.12 0.04 0.16 0.12 z M3.48 24.04 l0 -0.04 l-0.2 0 l-0.04 0.04 l0.24 0 z M2.12 24.36 c0.04 0 0.08 -0.04 0.12 -0.12 c0 -0.04 0 -0.08 -0.04 -0.08 l-0.08 0.08 l0 0.12 z M12.84 24.759999999999998 l0.12 -0.04 c0 -0.04 -0.08 -0.08 -0.16 -0.12 l-0.08 0 c-0.04 0 -0.04 0.04 -0.04 0.04 c0 0.08 0.08 0.12 0.16 0.12 z M2.12 24.84 l0.04 -0.04 l0 -0.04 l-0.12 0 l0 0.04 z M2.48 25.439999999999998 c-0.04 0 -0.08 -0.04 -0.08 -0.08 l0.08 -0.28 c0.04 -0.08 0.12 -0.12 0.16 -0.12 s0.04 0.04 0.04 0.08 l-0.04 0.2 c-0.04 0.12 -0.12 0.2 -0.16 0.2 z M1.84 25.439999999999998 c0.04 0 0.12 -0.04 0.12 -0.12 l0 -0.04 l-0.08 0 l-0.16 0.12 c0 0.04 0.04 0.04 0.12 0.04 z M-0.72 25.72 l0.08 -0.04 l-0.04 -0.04 l-0.12 0 l0 0.04 z M13.16 26.119999999999997 c-0.04 0 -0.12 -0.04 -0.12 -0.12 c0 -0.04 0.04 -0.08 0.12 -0.08 s0.12 0.04 0.12 0.04 l0 0.04 c0 0.08 -0.08 0.12 -0.12 0.12 z M1.44 26.96 c0.04 0 0.04 -0.04 0.04 -0.08 c-0.04 -0.04 -0.12 -0.08 -0.2 -0.08 l-0.12 0 z M0.68 27.68 c0.08 0 0.12 -0.08 0.12 -0.12 l0 -0.08 c0 -0.12 -0.04 -0.2 -0.08 -0.2 s-0.08 0.08 -0.12 0.2 l-0.04 0.12 c0 0.08 0.04 0.08 0.12 0.08 z M11.72 27.84 l0.04 -0.08 l-0.04 -0.08 l-0.04 0 l0 0.08 z M11.44 28.439999999999998 l0.12 -0.08 l0.04 -0.28 l-0.04 -0.32 c-0.04 0.04 -0.04 0.08 -0.08 0.24 l-0.08 0.32 z M0.76 28.240000000000002 c0.04 0 0.12 -0.04 0.12 -0.08 l0 -0.04 l-0.08 -0.16 l-0.08 -0.08 l0.08 0.2 c0 0.04 -0.04 0.08 -0.08 0.12 l-0.04 0.04 l0.08 0 z M0.68 28.880000000000003 c0.04 0 0.04 -0.04 0.04 -0.08 s0 -0.08 -0.08 -0.12 c-0.04 -0.08 -0.12 -0.12 -0.16 -0.12 l-0.04 0 l-0.04 0.04 l0.04 0.12 c0.08 0.12 0.16 0.16 0.24 0.16 z M10.88 30 c0.04 0 0.04 -0.04 0.04 -0.04 l0 -0.04 l-0.12 0 l0 0.04 z M10.76 30.4 c0.04 0 0.08 -0.04 0.08 -0.12 c-0.04 -0.04 -0.04 -0.08 -0.08 -0.08 s-0.04 0.04 -0.08 0.08 l0 0.04 c0 0.04 0.04 0.08 0.08 0.08 z M0.6 30.68 l0 -0.04 l0.04 -0.24 l0.04 -0.08 l0.04 0 c0 0.08 0 0.2 -0.04 0.28 z M10.68 30.64 l0 -0.04 l-0.04 -0.08 l-0.04 0 l0 0.08 l0.04 0.04 l0.04 0 z M10.36 31.28 l0.12 -0.16 l0.08 -0.32 c-0.04 -0.04 -0.04 -0.08 -0.08 -0.08 l-0.08 0.08 c-0.08 0.08 -0.08 0.24 -0.08 0.32 z M7.88 30.96 c0.04 0 0.08 -0.04 0.12 -0.08 c0 -0.04 0 -0.12 -0.04 -0.12 l-0.08 0.12 l0 0.08 z M11.44 31.16 c-0.08 0 -0.16 -0.04 -0.16 -0.08 c0 -0.08 0 -0.12 0.08 -0.12 c0.04 0 0.12 0.04 0.16 0.12 l0 0.04 z M0.4 31.8 l-0.08 -0.04 c0 -0.08 0 -0.08 0.04 -0.08 l0.08 0.04 z M10 32.12 c0 0 0.08 -0.04 0.12 -0.16 l0.04 -0.12 l-0.08 0.08 c-0.08 0.08 -0.12 0.12 -0.12 0.16 s0 0.04 0.04 0.04 z M0.32 32.24 c-0.04 0 -0.04 -0.04 -0.04 -0.08 l0 -0.08 c0 -0.08 0.04 -0.12 0.04 -0.12 c0.04 0 0.08 0.04 0.08 0.12 s0 0.16 -0.08 0.16 z M11.04 32.68 c0 -0.08 0.04 -0.2 0.08 -0.28 s0.08 -0.12 0.12 -0.12 l-0.08 0.28 c-0.04 0.08 -0.08 0.12 -0.12 0.12 z M10.4 34.08 c-0.04 0 -0.08 0 -0.08 -0.08 c0 -0.04 0.04 -0.16 0.12 -0.2 c0.04 -0.08 0.08 -0.08 0.12 -0.08 l0 0.2 c-0.04 0.08 -0.08 0.16 -0.16 0.16 z M8.92 33.96 l0.04 -0.08 l-0.08 -0.08 c-0.04 0 -0.04 0.04 -0.04 0.08 c0.04 0.04 0.04 0.08 0.08 0.08 z M6.04 34.2 l-0.04 -0.04 l0 -0.04 l0.12 -0.08 l0.12 0 l-0.04 0.04 c-0.04 0.04 -0.12 0.12 -0.16 0.12 z M7.96 35.64 c0.04 0 0.04 -0.04 0.04 -0.08 l0 -0.08 c0 -0.08 -0.04 -0.12 -0.08 -0.12 s-0.08 0.04 -0.08 0.12 c0.04 0.08 0.08 0.16 0.12 0.16 z M8.2 35.519999999999996 c0 -0.04 0 -0.12 -0.04 -0.12 c0 -0.04 -0.04 -0.04 -0.04 -0.04 l0 0.08 l0.04 0.08 l0.04 0 z M8 35.84 l0.08 -0.04 l-0.04 -0.04 l-0.12 0 l0 0.04 z M7.44 36.4 l0.12 -0.08 c0.12 -0.08 0.2 -0.16 0.2 -0.2 c0 -0.08 -0.04 -0.08 -0.08 -0.08 l-0.16 0.2 z M8.8 37 l-0.04 -0.04 l0 -0.04 c0 -0.08 0.04 -0.12 0.08 -0.12 c0 0 0.04 0.04 0.04 0.12 l0 0.04 z M8.36 37.6 l0.12 -0.24 c0.12 -0.16 0.2 -0.28 0.24 -0.28 l-0.12 0.28 c-0.12 0.12 -0.2 0.24 -0.24 0.24 z M6.84 37.4 c0.04 0 0.08 -0.04 0.08 -0.08 l0 -0.04 l-0.04 -0.08 c-0.04 0 -0.08 0.04 -0.08 0.08 l0 0.04 c0 0.04 0 0.08 0.04 0.08 z M6.68 37.56 c0 -0.04 0 -0.12 -0.04 -0.12 c0 -0.04 -0.04 -0.04 -0.04 -0.04 l0 0.08 l0.04 0.08 l0.04 0 z M7.88 38.32 l-0.08 -0.04 c0 -0.08 0 -0.08 0.04 -0.08 l0.08 0.04 z M5.8 40 l-0.04 0 l-0.04 -0.08 c0 -0.04 0 -0.08 0.04 -0.08 l0.08 0.08 z M23.414 40.04 c-0.2 0 -0.4 -0.04 -0.6 -0.12 c-0.32 -0.12 -0.48 -0.24 -0.48 -0.44 l0 -0.04 c0 -0.08 -0.08 -0.12 -0.2 -0.12 s-0.4 -0.24 -0.8 -0.72 l-0.96 -1 c-0.6 -0.52 -1.68 -2 -1.92 -2.6 c-0.24 -0.48 -0.76 -3 -0.76 -3.44 l0 -0.04 c0.04 -0.08 0.04 -0.2 0.04 -0.24 c-0.04 -0.08 -0.08 -0.4 -0.08 -0.76 l0.04 -0.6 c0.04 -0.28 0.04 -0.56 0.04 -0.64 l-0.04 -0.08 l0.08 -0.16 c0.08 -0.08 0.08 -0.12 0.08 -0.28 l-0.08 -0.6 l0.04 -2.56 c0 -0.4 -0.04 -0.64 -0.08 -0.76 c0 -0.08 0 -0.12 0.04 -0.12 l0.08 0 l0 -0.12 c0 -0.08 0 -0.16 0.08 -0.16 l0.04 -0.08 l-0.04 -0.36 c0 -0.16 0.04 -0.28 0.08 -0.36 c0.08 -0.08 0.12 -0.32 0.12 -0.44 c0 -0.48 0.08 -1 0.2 -1 l0.04 0.04 l0.08 0.04 c0.04 0 0.08 0 0.16 -0.08 l0.04 -0.16 c0 -0.04 -0.04 -0.08 -0.2 -0.12 c-0.12 -0.04 -0.16 -0.08 -0.16 -0.12 l0.04 -0.04 c0.04 -0.08 0.04 -0.2 0.04 -0.32 l-0.04 -0.28 c0 -0.8 0.32 -2.76 0.44 -2.76 c0.04 0 0.08 0.04 0.08 0.16 c0 0.08 0.04 0.16 0.08 0.16 c0.12 0 0.28 -0.52 0.28 -0.88 l-0.04 -0.24 c-0.04 -0.16 -0.08 -0.24 -0.12 -0.24 l-0.04 0.24 c-0.04 0.24 -0.08 0.36 -0.16 0.36 c0 0 -0.04 -0.08 -0.04 -0.2 l0 -0.08 c0.08 -0.76 0.16 -1.12 0.28 -1.12 l0.08 0 c0.08 0 0.16 -0.16 0.24 -0.56 l0.04 -0.72 c-0.04 0 -0.08 0.16 -0.12 0.4 c-0.04 0.32 -0.12 0.48 -0.2 0.48 l-0.04 -0.2 l0.08 -0.64 l-0.04 -0.2 c0 -0.08 0.04 -0.16 0.12 -0.2 l0.04 -0.12 l0 -0.16 c0 -0.44 0.28 -2.08 0.4 -2.08 c0.08 0 0.12 0.04 0.12 0.08 l-0.12 0.44 c-0.12 0.24 -0.16 0.68 -0.16 0.96 c0 0.16 0 0.24 0.04 0.28 c0.04 0 0.08 -0.2 0.12 -0.4 c0.08 -0.28 0.16 -0.84 0.24 -1.32 c0.16 -1 0.52 -3.96 0.6 -4.88 l0 -0.44 c0 -0.68 -0.08 -1.52 -0.16 -2.08 l-0.08 -0.4 l0.04 -0.2 c0 -0.08 0.12 -0.12 0.28 -0.12 c0.24 0 0.52 0.08 0.56 0.2 c0.04 0.16 0.92 0.96 1.04 0.96 c0.04 0 0.2 0.16 0.32 0.36 c0.24 0.36 0.48 1.52 0.48 2.36 l0 1.24 c-0.04 0.32 -0.04 0.56 -0.08 0.6 l-0.32 3.16 l-0.08 0.52 l0.08 0.28 l-0.04 0.12 c-0.08 0.08 -0.16 0.4 -0.2 0.72 l-0.32 2.24 c-0.64 4 -1.24 9.6 -1.24 11.88 l0 0.4 c0 0.36 0 0.72 -0.04 0.84 l-0.04 0.48 c0 1.4 0.4 4.88 0.56 5 l0.04 0 c0.2 0 0.68 -0.16 0.68 -0.24 l0 -0.04 c0 -0.04 0 -0.04 0.04 -0.04 l0.04 0 c0.04 0 0.08 -0.04 0.08 -0.08 l0 -0.12 l0.04 0 c0.16 0 1.44 -1.92 1.44 -2.16 c0.04 -0.08 0.12 -0.24 0.2 -0.32 l0.12 -0.08 l0 0.04 l-0.28 0.8 c0 0.04 0 0.08 0.04 0.08 c0.12 0 0.84 -1.12 0.84 -1.32 l0.32 -0.76 c0.2 -0.32 0.48 -0.84 0.6 -1.12 l0.4 -0.8 c0.08 -0.16 0.16 -0.36 0.16 -0.44 l0 -0.04 l0.04 -0.12 l0.68 -1.28 c0.32 -0.56 1.48 -3.24 1.6 -3.68 c0.04 -0.2 0.12 -0.32 0.12 -0.32 c0.16 0 0.24 0 0.24 -0.04 l-0.04 -0.04 l0 -0.08 c0 -0.04 0.04 -0.16 0.12 -0.2 c0.08 -0.08 0.16 -0.2 0.16 -0.24 l0 -0.04 c0 -0.08 0 -0.16 0.04 -0.24 c0.24 -0.48 0.36 -0.64 0.44 -0.64 l0.08 0 l-0.04 -0.12 l-0.04 -0.16 c0 -0.16 0.04 -0.32 0.12 -0.52 c0.12 -0.28 0.2 -0.52 0.24 -0.56 c0.12 -0.16 0.24 -0.76 0.24 -1 l-0.04 -0.12 l0.2 0.04 c0.12 0 0.2 -0.08 0.2 -0.2 l-0.08 -0.36 c0 -0.12 0.04 -0.24 0.16 -0.44 c0.12 -0.16 0.28 -0.44 0.28 -0.56 c0.04 -0.12 0.16 -0.2 0.28 -0.2 c0.08 0 0.12 -0.04 0.12 -0.08 l-0.04 -0.12 c0 -0.16 0.12 -0.36 0.4 -0.84 c0.08 -0.12 0.12 -0.28 0.12 -0.32 c0 -0.08 0.04 -0.16 0.08 -0.2 c0.08 -0.08 0.16 -0.28 0.16 -0.44 l-0.04 -0.16 c0 -0.08 0.04 -0.12 0.16 -0.16 s0.16 -0.12 0.16 -0.24 s-0.04 -0.24 -0.12 -0.36 l-0.08 -0.12 l0.08 0 l0.12 -0.04 l0.04 -0.08 l0.16 0.04 l-0.08 -0.12 c0 -0.04 0.04 -0.08 0.08 -0.12 c0.04 0 0.08 -0.08 0.08 -0.16 l0 -0.12 c0 -0.16 0.08 -0.32 0.2 -0.36 c0.08 -0.04 0.16 -0.24 0.16 -0.36 c0 -0.28 0.28 -0.76 0.4 -0.76 c0.04 0 0.16 -0.16 0.24 -0.4 l0.32 -0.64 l-0.08 -0.08 c-0.12 -0.04 -0.16 -0.12 -0.16 -0.16 s0 -0.04 0.04 -0.04 l0.16 0.04 c0.12 0 0.2 -0.2 0.48 -0.8 c0.12 -0.24 0.24 -0.64 0.24 -0.8 l-0.04 -0.08 c-0.04 0 -0.12 0.12 -0.24 0.28 l-0.12 0.2 l0 -0.12 c0.04 -0.16 0.12 -0.36 0.24 -0.44 c0.12 -0.12 0.16 -0.28 0.16 -0.32 c0 -0.08 0 -0.16 0.04 -0.2 l0.04 0 c0.04 0 0.04 0.04 0.04 0.12 l0 0.08 c0 0.04 0 0.08 0.04 0.08 c0.08 0 0.16 -0.08 0.24 -0.24 c0.12 -0.2 0.2 -0.32 0.2 -0.4 s-0.04 -0.12 -0.12 -0.12 s-0.12 0.12 -0.12 0.24 c0 0.08 -0.04 0.16 -0.08 0.16 l-0.04 0 l-0.04 -0.12 c0 -0.12 0.04 -0.28 0.16 -0.48 c0.16 -0.36 0.24 -0.52 0.32 -0.52 c0.04 0 0.04 0.04 0.04 0.16 l0 0.04 c0.04 0 0.12 -0.12 0.24 -0.32 c0.12 -0.24 0.2 -0.4 0.2 -0.48 l0 -0.04 c-0.08 -0.04 -0.16 -0.08 -0.16 -0.2 s0.08 -0.24 0.16 -0.4 c0.08 -0.12 0.12 -0.2 0.16 -0.2 l0 0.16 c0 0.16 0.04 0.2 0.08 0.2 c0.08 0 0.16 -0.08 0.2 -0.28 c0.08 -0.12 0.08 -0.24 0.08 -0.36 s0 -0.2 -0.04 -0.28 l-0.08 -0.2 l0.04 -0.04 c0.04 0 0.08 -0.04 0.08 -0.08 l0 -0.08 c0 -0.24 0.2 -0.72 0.28 -0.72 l0.04 0 c0.04 0 0.08 0.04 0.08 0.08 l-0.2 0.4 l0.04 0.04 c0.04 0 0.12 -0.08 0.24 -0.24 c0.2 -0.28 0.6 -0.48 0.84 -0.48 c0.08 0 0.12 0.04 0.12 0.08 s0.08 0.08 0.2 0.08 l0.16 0 c0.2 0 0.32 0.04 0.36 0.12 c0 0.08 0.12 0.16 0.2 0.16 c0.2 0 0.28 0.16 0.32 0.44 c0 0.04 0.04 0.08 0.08 0.08 s0.12 -0.04 0.16 -0.12 l0.08 -0.04 c0.04 0 0.04 0.04 0.08 0.16 l0.04 0.2 c0 0.2 -0.08 0.32 -0.24 0.36 c-0.04 0.04 -0.08 0.12 -0.08 0.2 l0 0.12 l0.08 0.2 l0.08 -0.16 c0.04 -0.08 0.12 -0.12 0.2 -0.12 c0.12 0 0.2 0.04 0.24 0.16 c0 0.04 -0.08 0.28 -0.2 0.48 c-0.08 0.2 -0.16 0.44 -0.16 0.52 l0.04 0.16 l-0.04 0.2 c0 0.12 -0.08 0.4 -0.12 0.64 l-0.04 0.52 c0 0.08 -0.04 0.16 -0.08 0.28 l-0.44 0.68 c-0.16 0.24 -0.24 0.36 -0.28 0.36 l-0.08 -0.04 l-0.08 -0.08 l-0.04 0.08 c0.04 0.16 0.04 0.32 0.04 0.36 l-0.04 0.08 l0.04 0.16 c0 0.12 -0.04 0.36 -0.12 0.52 s-0.16 0.44 -0.24 0.68 c-0.04 0.2 -0.12 0.44 -0.16 0.48 c-0.4 0.84 -0.72 1.52 -0.92 2.04 c-0.16 0.32 -0.32 0.6 -0.4 0.6 s-0.24 0.12 -0.32 0.24 l-0.16 0.2 l0.32 0 c0.04 0 0.08 0 0.08 0.04 l-0.2 0.48 c-0.48 1 -0.64 1.32 -0.8 1.32 l-0.16 0 c-0.04 0 -0.12 0 -0.12 0.04 l0 0.04 c0 0.04 0.04 0.08 0.12 0.08 c0.12 0 0.16 0.08 0.16 0.2 c0 0.08 -0.04 0.24 -0.12 0.4 s-0.12 0.24 -0.16 0.24 l-0.12 -0.4 c0 -0.08 0.04 -0.12 0.16 -0.12 c0.08 0 0.12 -0.04 0.12 -0.08 l0 -0.04 c-0.04 -0.04 -0.12 -0.08 -0.2 -0.08 c-0.12 0 -0.2 0.04 -0.2 0.12 l0 0.04 c0 0.08 0 0.16 -0.08 0.16 l-0.04 0.04 l0.12 0.32 l-0.04 0.04 c-0.04 0 -0.04 0.04 -0.04 0.16 l0.04 0.48 c0 0.08 0 0.12 -0.04 0.12 l-0.2 -0.16 c-0.04 0 -0.04 0 -0.04 0.08 l0 0.12 l0.12 -0.04 c0.04 0 0.04 0.04 0.04 0.12 s-0.04 0.2 -0.12 0.36 c-0.08 0.12 -0.2 0.2 -0.28 0.2 l-0.04 0 c-0.08 0 -0.12 0.04 -0.12 0.12 c-0.04 0.12 -0.2 0.28 -0.32 0.36 c-0.16 0.08 -0.24 0.2 -0.24 0.36 l0.08 0.36 c0 0.16 -0.08 0.2 -0.16 0.28 c-0.08 0.04 -0.16 0.12 -0.16 0.16 l0 0.04 c0 0.08 0.08 0.12 0.16 0.12 s0.16 -0.04 0.2 -0.12 s0.04 -0.12 0.08 -0.12 l0 0.08 c0 0.24 -0.4 1.08 -0.52 1.08 c-0.04 0 -0.08 0.04 -0.08 0.08 l0.08 0.24 c0 0.08 -0.04 0.16 -0.12 0.24 c-0.08 0.04 -0.16 0.16 -0.16 0.2 l0 0.04 c0 0.08 -0.04 0.28 -0.12 0.44 c-0.16 0.32 -0.48 0.6 -0.6 0.6 c-0.04 0 -0.08 0 -0.08 -0.04 s-0.04 -0.04 -0.04 -0.04 c-0.12 0 -0.36 0.44 -0.4 0.8 c-0.04 0.24 -0.12 0.4 -0.12 0.4 c-0.04 0 -0.12 0.12 -0.2 0.28 l-0.04 0.24 l0.32 -0.16 c0.08 0 0.12 0.04 0.12 0.16 l-0.08 0.32 l-0.04 -0.12 c-0.04 -0.08 -0.04 -0.12 -0.08 -0.12 l-0.04 0 l-0.04 0.08 l0.08 0.28 c0 0.08 -0.04 0.16 -0.16 0.2 l-0.28 0.12 l-0.04 0 l0.2 -0.28 l-0.04 -0.04 c-0.08 0 -0.16 0.08 -0.24 0.16 c-0.04 0.08 -0.24 0.16 -0.4 0.16 s-0.24 0.04 -0.24 0.12 l0 0.08 c0.04 0.04 0.04 0.08 0.08 0.08 l0 -0.04 c0 -0.04 0.04 -0.08 0.12 -0.08 l0.52 0.12 l0.24 0.04 l0.04 0.04 l-0.08 0.2 c-0.08 0.24 -0.56 0.64 -0.72 0.64 l-0.04 0 c-0.12 0 -0.36 0.56 -0.36 0.76 l0 0.04 l0.04 0 l0 -0.08 c0 -0.04 0 -0.12 0.08 -0.12 s0.12 0.2 0.12 0.4 l-0.04 0.32 c-0.08 0.28 -0.24 0.68 -0.48 1.04 c-0.08 0.12 -0.28 0.52 -0.4 0.92 c-0.28 0.68 -0.48 1.16 -1.28 2.72 c-0.48 0.96 -0.8 1.6 -0.96 2.04 c-0.04 0.16 -0.16 0.4 -0.24 0.56 c-0.32 0.48 -0.64 1.24 -0.64 1.36 l0 0.04 c0 0.04 -0.04 0.08 -0.08 0.08 c-0.12 0 -0.48 0.52 -0.48 0.68 l0 0.08 c0 0.04 0 0.08 -0.04 0.08 s-0.2 0.12 -0.36 0.24 c-0.16 0.16 -0.52 0.28 -0.92 0.36 c-0.36 0.08 -0.64 0.12 -0.88 0.12 z M38.134 5.920000000000002 l-0.04 -0.16 c-0.04 0 -0.04 0.04 -0.04 0.08 l0.04 0.08 l0.04 0 z M38.974000000000004 6.280000000000001 l0.08 -0.12 c0 -0.04 -0.04 -0.08 -0.08 -0.08 s-0.08 0.04 -0.08 0.08 c0 0.08 0.04 0.12 0.08 0.12 z M35.894000000000005 6.560000000000002 c-0.04 0 -0.04 -0.04 -0.08 -0.08 c0 -0.04 0 -0.08 0.04 -0.08 l0.04 0.12 l0 0.04 z M38.854 7.119999999999997 c0.04 0 0.08 0 0.08 -0.04 s-0.08 -0.08 -0.12 -0.12 l-0.08 0 l0 0.04 c0 0.08 0.04 0.12 0.12 0.12 z M35.17400000000001 8.04 l-0.04 -0.04 l0.08 -0.24 c0.04 -0.04 0.08 -0.04 0.08 -0.08 c0.04 0 0.04 0.04 0.04 0.04 l0 0.08 l-0.08 0.16 z M37.214 8.920000000000002 c0.08 0 0.16 -0.08 0.16 -0.2 c0 0 0 -0.04 -0.04 -0.04 l-0.04 -0.04 l-0.04 0.04 c-0.08 0.04 -0.12 0.12 -0.12 0.16 s0.04 0.08 0.08 0.08 z M36.734 10 l0.08 -0.04 l0 -0.04 l-0.08 -0.04 l-0.08 0.04 c0 0.04 0.04 0.08 0.08 0.08 z M36.254000000000005 10.84 c0.08 0 0.12 -0.04 0.16 -0.12 c0 -0.08 0 -0.12 -0.04 -0.16 c-0.04 0 -0.08 0.04 -0.12 0.12 l-0.04 0.12 z M35.494 10.96 l0.08 -0.12 c0 -0.04 0 -0.12 -0.04 -0.12 l-0.08 0.12 c0 0.08 0 0.12 0.04 0.12 z M36.814 11.16 c0.08 0 0.12 -0.04 0.12 -0.12 l0 -0.04 l-0.08 -0.04 c-0.08 0 -0.12 0.04 -0.12 0.04 l0 0.04 c0 0.08 0.04 0.12 0.08 0.12 z M36.134 11.36 l0.04 -0.04 l-0.04 -0.12 l-0.04 0 z M34.974000000000004 11.48 l0 -0.12 c0 -0.04 -0.08 -0.08 -0.12 -0.08 l-0.08 0.04 l0.04 0.04 c0.08 0.08 0.12 0.12 0.16 0.12 z M37.014 11.600000000000001 c0.04 0 0.12 -0.04 0.12 -0.12 l0 -0.04 c0 -0.04 0 -0.08 -0.04 -0.08 s-0.12 0.08 -0.12 0.12 l0 0.04 c0 0.04 0 0.08 0.04 0.08 z M36.653999999999996 11.68 l0.08 -0.04 l0 -0.04 c0 -0.08 -0.04 -0.12 -0.04 -0.12 c-0.04 0 -0.08 0.04 -0.08 0.12 l0 0.04 s0 0.04 0.04 0.04 z M37.694 11.68 c0.08 0 0.12 -0.04 0.12 -0.08 c-0.04 -0.08 -0.12 -0.08 -0.24 -0.08 l-0.08 0.04 l0 0.04 c0.04 0.04 0.12 0.08 0.2 0.08 z M35.454 11.96 c0.04 -0.04 0.08 -0.08 0.08 -0.12 l0 -0.04 c0 -0.08 -0.04 -0.12 -0.08 -0.12 c-0.04 0.04 -0.12 0.08 -0.12 0.16 s0.04 0.12 0.08 0.12 l0.04 0 z M36.454 12.600000000000001 l0.12 -0.04 c0.12 0 0.2 -0.12 0.2 -0.2 c0 -0.12 0 -0.2 -0.04 -0.2 c0 0 -0.08 0.08 -0.16 0.24 c-0.08 0.08 -0.12 0.16 -0.12 0.2 z M36.214 12.399999999999999 l0.2 -0.12 c0 -0.04 -0.04 -0.04 -0.12 -0.04 s-0.12 0.04 -0.12 0.04 l0 0.04 z M35.934 12.64 c0.04 0 0.08 0 0.08 -0.04 l-0.04 -0.04 l-0.12 0 c0 0.04 0.04 0.08 0.08 0.08 z M35.574 12.84 l0 -0.04 l-0.04 -0.12 l-0.04 0 l0 0.08 l0.04 0.08 l0.04 0 z M34.974000000000004 12.96 c0.04 0 0.08 -0.04 0.08 -0.08 c-0.04 -0.08 -0.04 -0.12 -0.08 -0.12 s-0.04 0.04 -0.08 0.12 c0 0.04 0 0.08 0.08 0.08 z M35.814 12.879999999999999 l0.08 -0.04 l-0.04 -0.04 l-0.08 -0.04 s-0.04 0 -0.04 0.04 l0 0.04 z M34.653999999999996 13.079999999999998 c0.04 0 0.08 -0.04 0.08 -0.12 c0 -0.04 -0.04 -0.08 -0.12 -0.08 l-0.08 0.04 l0 0.04 c0.04 0.08 0.12 0.12 0.12 0.12 z M35.894000000000005 13.16 c0.04 0 0.08 -0.04 0.16 -0.16 l0.04 -0.08 l-0.04 -0.04 l-0.08 0.04 c-0.08 0.04 -0.12 0.12 -0.12 0.16 z M33.934 13.280000000000001 l0.12 -0.2 l-0.04 -0.08 l-0.04 0 l-0.04 0.16 l0 0.12 z M36.814 13.52 l0.2 -0.16 l0.08 -0.16 l-0.08 0 c-0.08 0 -0.2 0.04 -0.24 0.12 l-0.04 0.12 c0 0.04 0.04 0.08 0.08 0.08 z M33.054 13.399999999999999 l0.08 -0.04 l0 -0.04 l-0.08 -0.04 l-0.08 0.04 c0 0.04 0.04 0.08 0.08 0.08 z M35.574 13.719999999999999 c0.08 0 0.12 -0.08 0.16 -0.16 c0 -0.08 -0.04 -0.16 -0.08 -0.16 s-0.12 0.08 -0.16 0.16 l-0.04 0.08 c0 0.08 0.04 0.08 0.12 0.08 z M34.854 13.920000000000002 l0.2 -0.2 l0.08 -0.2 l0 -0.04 l-0.04 0 c-0.08 0 -0.12 0.08 -0.16 0.2 l-0.08 0.2 l0 0.04 z M36.17400000000001 15.2 c0.04 0 0.12 -0.16 0.16 -0.32 c0 -0.16 0.08 -0.36 0.16 -0.36 c0.12 -0.04 0.16 -0.2 0.16 -0.32 c0 -0.08 0 -0.16 -0.04 -0.2 s-0.08 -0.04 -0.12 -0.04 c-0.04 0.04 -0.12 0.12 -0.12 0.24 l0.04 0.16 c0 0.04 -0.04 0.08 -0.08 0.08 c-0.08 0 -0.16 0.16 -0.24 0.68 l0 0.04 z M35.414 14.36 c0.04 0 0.08 -0.04 0.08 -0.12 l0.04 -0.08 l-0.04 -0.04 c-0.04 0 -0.04 0.08 -0.08 0.12 l0 0.12 z M35.854 14.36 c0.04 0 0.08 -0.04 0.08 -0.08 l0 -0.04 c0 -0.04 -0.04 -0.12 -0.12 -0.12 c-0.04 0 -0.08 0.08 -0.08 0.12 c0.04 0.08 0.08 0.12 0.12 0.12 z M34.214 14.68 l0.04 -0.12 c0 -0.04 0 -0.12 -0.08 -0.16 l-0.04 0 l0 0.12 c0.04 0.08 0.04 0.16 0.08 0.16 z M35.374 14.920000000000002 c0.12 0 0.24 0 0.28 -0.08 l0 -0.04 c0 -0.08 -0.2 -0.24 -0.32 -0.28 l-0.08 0 l-0.04 0.08 l0.04 0.12 l-0.04 0.04 c-0.04 0 -0.08 0.04 -0.08 0.12 c0 0.04 0.12 0.04 0.24 0.04 z M19.574 14.96 c0 -0.04 0 -0.12 -0.04 -0.16 l-0.04 0 l-0.04 0.04 l0.08 0.12 l0.04 0 z M34.374 15.079999999999998 l0.04 -0.08 l-0.08 -0.08 l0 -0.04 c-0.04 0 -0.04 0.04 -0.04 0.12 z M34.934 15.8 c0.04 0 0.08 -0.04 0.08 -0.08 l0 -0.08 c0 -0.12 0 -0.24 0.04 -0.32 c0.04 -0.04 0.04 -0.08 0.04 -0.12 s0 -0.08 -0.08 -0.12 l-0.08 -0.04 l0.04 0.24 l-0.08 0.04 l-0.04 0 c-0.12 0 -0.2 0.04 -0.2 0.08 l0 0.04 c0 0.04 0 0.08 0.04 0.08 s0.08 0.04 0.08 0.08 l0 0.04 c0 0.08 0.08 0.16 0.16 0.16 z M34.294 15.559999999999999 c0.04 0 0.08 0 0.08 -0.04 l0.04 -0.08 l-0.04 -0.08 l-0.08 -0.04 c-0.04 0 -0.12 0.04 -0.12 0.12 l0.04 0.08 z M35.454 15.48 c0 -0.04 0 -0.12 -0.04 -0.12 c0 -0.04 -0.04 -0.04 -0.04 -0.04 l0 0.08 l0.04 0.08 l0.04 0 z M34.974000000000004 16.28 c0.12 0 0.24 -0.12 0.28 -0.32 l0.04 -0.4 c-0.04 0 -0.08 0.04 -0.08 0.2 c-0.04 0.16 -0.16 0.28 -0.24 0.28 s-0.12 0.04 -0.12 0.12 c0.04 0.08 0.08 0.12 0.12 0.12 z M34.214 16.96 c0.12 0 0.32 -0.32 0.32 -0.56 l0 -0.16 l0.04 -0.32 l0.08 -0.16 c0 -0.04 0 -0.04 -0.08 -0.04 c-0.16 0 -0.36 0.44 -0.36 0.72 l0.08 0.24 l-0.04 0.04 l-0.12 0 c-0.04 0 -0.08 0 -0.08 0.04 s0.04 0.08 0.12 0.16 z M34.054 16.16 l0.16 -0.32 l-0.04 -0.08 l-0.04 0 l-0.12 0.36 z M34.653999999999996 16.28 l0.08 -0.12 c0 -0.08 -0.04 -0.12 -0.08 -0.12 s-0.08 0.04 -0.08 0.12 z M32.694 16.68 c0.2 0 0.28 -0.04 0.28 -0.28 c0 -0.12 0.04 -0.2 0.08 -0.2 l0.12 0.04 l-0.08 -0.08 c-0.08 -0.08 -0.12 -0.08 -0.16 -0.08 s-0.08 0.04 -0.12 0.12 s-0.08 0.2 -0.08 0.28 l0 0.04 l-0.08 0.04 c-0.04 0 -0.08 -0.08 -0.08 -0.24 l0 -0.16 l-0.16 0.4 c0 0.08 0.08 0.12 0.28 0.12 z M34.334 16.44 l-0.04 0 l-0.04 -0.08 l0 -0.08 l0.04 0 l0.04 0.12 l0 0.04 z M34.653999999999996 16.88 c0.04 0 0.12 -0.04 0.16 -0.16 l0.04 -0.2 l-0.04 0 c-0.04 0 -0.08 0.08 -0.12 0.16 l-0.08 0.16 z M33.653999999999996 16.96 c0.04 0 0.08 -0.04 0.12 -0.12 l0.04 -0.24 l-0.12 0 c-0.08 0 -0.12 0.12 -0.12 0.2 l0 0.08 z M19.054000000000002 17.16 c0.04 0 0.08 -0.04 0.16 -0.16 c0.04 -0.08 0.08 -0.16 0.08 -0.24 l0 -0.04 c0 -0.04 -0.04 -0.04 -0.04 -0.04 c-0.04 0 -0.08 0.08 -0.12 0.16 c-0.08 0.12 -0.08 0.2 -0.08 0.28 l0 0.04 z M21.134 17.12 l0.08 -0.04 l0 -0.04 l-0.08 -0.04 l-0.08 0.04 c0 0.04 0.04 0.08 0.08 0.08 z M33.454 17.6 c0.04 0 0.08 -0.08 0.08 -0.24 c0 -0.08 -0.04 -0.12 -0.08 -0.16 c-0.04 0 -0.08 0.12 -0.08 0.24 s0.04 0.16 0.08 0.16 z M21.094 17.44 l0.08 -0.12 c0 -0.04 -0.04 -0.12 -0.08 -0.12 c-0.08 0 -0.08 0.08 -0.08 0.12 c0 0.08 0.04 0.12 0.08 0.12 z M33.734 18.08 l0.04 -0.04 c0.08 0 0.2 -0.2 0.28 -0.4 l0.12 -0.28 l-0.12 0.04 l-0.04 -0.08 c-0.04 -0.04 -0.12 -0.12 -0.2 -0.12 c-0.04 0 -0.08 0.04 -0.08 0.08 l0 0.08 c0 0.08 0.04 0.12 0.12 0.12 l0.16 -0.04 l-0.04 0.12 c-0.08 0.08 -0.16 0.24 -0.2 0.32 z M35.054 17.4 c0 -0.04 0 -0.12 -0.04 -0.16 l-0.04 0 l-0.04 0.04 l0.08 0.12 l0.04 0 z M32.334 17.72 l0.08 -0.12 l-0.04 -0.04 l-0.2 -0.16 l0 -0.04 c-0.04 0 -0.12 0.04 -0.16 0.12 l-0.04 0.12 l0.12 -0.04 c0.08 0 0.16 0 0.16 0.08 z M34.294 17.76 l0.12 -0.12 c0 -0.04 0 -0.12 -0.08 -0.12 l-0.12 0.12 c0 0.04 0 0.12 0.08 0.12 z M33.254000000000005 17.76 l0.04 -0.04 l0 -0.04 l-0.08 -0.04 s-0.04 0 -0.04 0.04 l0 0.04 z M32.134 18.28 c0.04 0 0.04 -0.08 0.04 -0.12 l0 -0.12 c-0.04 -0.08 -0.04 -0.16 -0.08 -0.16 c0 0 -0.04 0 -0.04 0.08 l-0.04 0.2 c0 0.08 0.04 0.12 0.12 0.12 z M33.934 18.72 c0.08 0 0.08 -0.08 0.08 -0.16 l0 -0.04 c0 -0.08 0.04 -0.2 0.12 -0.28 c0.08 -0.12 0.12 -0.24 0.12 -0.32 c-0.04 0 -0.04 0 -0.04 -0.04 c-0.08 0 -0.24 0.32 -0.32 0.6 l0 0.12 c0 0.08 0 0.12 0.04 0.12 z M32.974000000000004 18.4 c0.08 0 0.12 -0.08 0.12 -0.2 c0 -0.08 0 -0.12 -0.04 -0.12 l-0.04 0 c-0.08 0.04 -0.12 0.16 -0.12 0.24 c0 0.04 0.04 0.08 0.08 0.08 z M33.214 19.64 c0.04 0 0.04 -0.08 0.08 -0.16 c0.04 -0.12 0.08 -0.2 0.12 -0.2 l0.12 0 c0.08 0 0.12 0 0.16 -0.04 l0.04 -0.08 c0 -0.04 0 -0.04 -0.08 -0.04 c-0.12 0 -0.2 -0.04 -0.2 -0.12 c0 -0.04 0.04 -0.08 0.12 -0.12 l0.04 0 l0.12 0.04 l0.04 0.08 l0.08 -0.08 c0 -0.04 0 -0.08 -0.08 -0.12 c-0.04 -0.04 -0.08 -0.08 -0.08 -0.2 l0.04 -0.28 l-0.04 -0.12 l-0.04 0 l0 0.04 c0 0.04 -0.04 0.08 -0.08 0.08 l-0.16 0 l0.04 0.16 c0 0.12 -0.04 0.28 -0.12 0.4 l-0.12 0.32 l0 0.04 s0 0.04 -0.08 0.08 l-0.04 0.12 l0.04 0.12 z M19.974 18.8 c0.04 0 0.04 -0.04 0.08 -0.08 c0 -0.08 0 -0.12 -0.08 -0.12 c-0.04 0 -0.08 0.04 -0.08 0.12 c0.04 0.04 0.04 0.08 0.08 0.08 z M32.894000000000005 18.92 l0.08 -0.12 c0 -0.04 0 -0.08 -0.08 -0.08 c-0.04 0 -0.08 0.04 -0.08 0.08 z M31.894000000000002 19 c0 -0.04 0 -0.12 -0.04 -0.16 l-0.08 0 l0.08 0.16 l0.04 0 z M18.734 19.84 c0.08 0 0.16 -0.2 0.2 -0.52 l0 -0.16 c0 -0.16 0 -0.24 -0.04 -0.24 s-0.04 0.04 -0.04 0.08 l0 0.08 c0 0.08 -0.04 0.16 -0.08 0.2 c-0.08 0 -0.12 0.16 -0.12 0.32 s0.04 0.24 0.08 0.24 z M31.654000000000003 19.12 l-0.08 -0.08 c-0.04 -0.08 -0.12 -0.12 -0.2 -0.12 l-0.04 0 l0.12 0.12 z M32.774 19.08 c0 -0.04 0 -0.08 -0.04 -0.12 c0 -0.04 -0.04 -0.04 -0.04 -0.04 l0 0.12 l0.04 0.04 l0.04 0 z M32.614000000000004 19.2 c0 -0.04 0 -0.12 -0.04 -0.16 l-0.04 0 l-0.04 0.04 l0.08 0.12 l0.04 0 z M31.174 19.44 l0.08 -0.08 l0.04 -0.12 l-0.04 -0.08 c-0.04 0 -0.08 0.08 -0.08 0.16 l0 0.12 z M33.454 19.76 c0.04 0 0.04 -0.04 0.08 -0.16 c0 -0.08 0 -0.12 -0.04 -0.12 l-0.04 0 c-0.04 0.04 -0.04 0.12 -0.04 0.2 z M33.894000000000005 20.04 c0.08 0 0.2 -0.2 0.2 -0.36 l0 -0.04 l-0.08 -0.04 c-0.04 0 -0.08 0.04 -0.12 0.12 c-0.04 0.04 -0.08 0.16 -0.08 0.24 l0 0.04 z M32.974000000000004 20.8 c0.08 0 0.12 -0.04 0.12 -0.16 l0 -0.12 l-0.04 0.08 c-0.04 0.08 -0.12 0.12 -0.16 0.12 s-0.04 -0.04 -0.04 -0.08 l0.04 -0.24 c0.04 -0.16 0.12 -0.28 0.16 -0.28 l0.04 0 c0.04 0 0.04 -0.04 0.04 -0.08 l0 -0.12 c0 -0.12 -0.04 -0.2 -0.08 -0.2 l-0.08 0 l-0.04 0.12 l0 0.08 s0 0.04 -0.04 0.04 l-0.28 -0.08 c-0.04 0 -0.04 0.04 -0.04 0.04 l0.04 0.16 c0 0.04 -0.04 0.04 -0.08 0.04 l-0.32 -0.04 l0 0.04 l0.24 0.12 c0.16 0.12 0.24 0.16 0.24 0.2 s-0.04 0.04 -0.16 0.08 c-0.12 0.08 -0.2 0.16 -0.2 0.24 l0.04 0.04 l0.08 -0.08 c0.08 -0.08 0.12 -0.08 0.16 -0.08 l0.12 0.08 c0.08 0.08 0.16 0.08 0.24 0.08 z M32.214 19.96 l0.16 -0.04 l0 -0.04 c-0.04 -0.04 -0.08 -0.04 -0.12 -0.04 l-0.12 0 l-0.2 0.08 c0 0.04 0.12 0.04 0.28 0.04 z M33.734 20.36 l0 -0.04 l-0.04 -0.08 c0 -0.04 0 -0.04 -0.04 -0.04 l0 0.08 l0.04 0.08 l0.04 0 z M31.534000000000002 20.6 l0.16 -0.04 l0 -0.04 c0 -0.08 -0.08 -0.12 -0.16 -0.12 s-0.16 0.04 -0.16 0.12 l0 0.04 z M18.574 21.32 l0.08 -0.08 c0.04 -0.08 0.08 -0.28 0.08 -0.44 c0 -0.2 -0.04 -0.28 -0.12 -0.28 l-0.08 0.04 l0.08 0.24 l-0.04 0.2 c-0.04 0.08 -0.04 0.16 -0.04 0.24 c0 0.04 0 0.08 0.04 0.08 z M30.614 21.16 c0.04 0 0.04 -0.04 0.04 -0.12 l0 -0.08 l0.04 -0.08 l0.08 0 c0.04 0 0.04 -0.04 0.04 -0.12 c-0.04 -0.08 -0.04 -0.12 -0.08 -0.12 l-0.12 0.12 c-0.08 0.12 -0.12 0.2 -0.12 0.28 s0.04 0.12 0.12 0.12 z M31.934 20.92 c0.04 0 0.08 -0.04 0.08 -0.08 l0 -0.12 c-0.04 0 -0.08 0.04 -0.08 0.12 l-0.04 0.04 z M32.534000000000006 21.16 c0 0 0.08 -0.04 0.12 -0.16 c0.04 -0.04 0.08 -0.16 0.08 -0.2 l-0.04 -0.08 l-0.04 0 c-0.08 0 -0.12 0.08 -0.16 0.2 l-0.04 0.12 c0 0.08 0.04 0.12 0.08 0.12 z M33.774 20.92 c-0.08 0 -0.16 0 -0.16 -0.04 c0 0 0.04 -0.08 0.12 -0.08 l0.08 -0.04 l0.08 0.08 c0 0.04 -0.04 0.08 -0.12 0.08 z M32.254000000000005 21 l0.04 -0.04 l-0.08 -0.08 l0 -0.04 c-0.04 0 -0.04 0.04 -0.04 0.08 c0.04 0.04 0.04 0.08 0.08 0.08 z M31.894000000000002 21.32 l0.04 -0.12 l0 -0.08 s0 -0.04 -0.04 -0.04 l-0.04 0 c-0.04 0.04 -0.08 0.12 -0.08 0.2 l0.08 0.04 l0.04 0 z M33.574 21.36 c-0.08 0 -0.12 -0.04 -0.12 -0.08 l0 -0.04 c0 -0.04 0.08 -0.08 0.12 -0.08 s0.12 0.04 0.12 0.08 c0 0.08 -0.04 0.12 -0.12 0.12 z M30.934 21.48 l0.04 -0.16 l-0.04 -0.12 l-0.04 0 c-0.04 0 -0.04 0.04 -0.04 0.12 z M31.614 24 l0.08 -0.08 c0.08 -0.08 0.2 -0.4 0.32 -0.72 s0.24 -0.6 0.32 -0.64 c0.12 -0.12 0.24 -0.52 0.24 -0.72 l0 -0.08 l-0.04 -0.04 c-0.04 0 -0.04 0.04 -0.04 0.16 c-0.04 0.2 -0.16 0.28 -0.24 0.28 c-0.04 0 -0.08 0 -0.08 -0.08 l0 -0.04 c0 -0.2 0.24 -0.68 0.4 -0.68 c0.04 0 0.12 0.04 0.12 0.12 c0 0.04 0.04 0.04 0.08 0.04 l0.04 0 c0.04 -0.04 0.04 -0.08 0.04 -0.12 c0 -0.08 -0.08 -0.12 -0.28 -0.16 c-0.04 -0.04 -0.08 -0.04 -0.12 -0.04 c-0.12 0 -0.16 0.08 -0.2 0.28 c-0.04 0.12 -0.08 0.24 -0.16 0.24 l-0.08 -0.04 l0.04 0.2 c0 0.16 -0.08 0.28 -0.16 0.28 l-0.04 0 c-0.04 0 -0.08 0.12 -0.12 0.28 c-0.04 0.2 -0.12 0.44 -0.2 0.56 s-0.12 0.24 -0.12 0.32 s0 0.2 -0.08 0.28 c-0.08 0.04 -0.08 0.2 -0.08 0.28 l0.04 0.04 c0.04 0 0.08 -0.12 0.16 -0.28 c0.08 -0.24 0.2 -0.48 0.28 -0.52 l0.04 -0.08 l-0.04 -0.16 c0 -0.04 0 -0.04 0.04 -0.04 c0.08 0 0.12 0.04 0.12 0.12 s-0.04 0.24 -0.12 0.44 l-0.2 0.56 z M30.694000000000003 21.56 c0.08 0 0.12 0 0.12 -0.04 l-0.16 -0.12 l-0.04 0 l-0.04 0.04 c0.04 0.08 0.08 0.12 0.12 0.12 z M30.294000000000004 21.68 c0.04 0 0.08 -0.04 0.08 -0.12 l0 -0.08 c-0.04 0 -0.08 0.04 -0.08 0.08 l-0.04 0.08 z M31.534000000000002 21.88 c0.04 0 0.08 -0.04 0.08 -0.08 l-0.12 -0.28 l-0.04 0 l-0.04 0.12 c0 0.08 0.08 0.24 0.12 0.24 z M20.094 21.8 c0.04 0 0.08 -0.08 0.08 -0.12 l0.04 -0.08 l-0.04 -0.04 c-0.04 0 -0.08 0.04 -0.08 0.12 l0 0.12 z M30.614 22 c0.04 0 0.12 -0.04 0.16 -0.16 l0.08 -0.12 l-0.08 -0.04 l-0.08 0 c-0.08 0.04 -0.16 0.12 -0.16 0.2 l0 0.04 c0 0.04 0.04 0.08 0.08 0.08 z M31.054000000000002 21.8 l0.08 -0.04 l-0.04 -0.04 l-0.08 -0.04 s-0.04 0 -0.04 0.04 l0 0.04 z M29.934 22.24 l0.16 -0.08 l0.08 -0.2 l-0.04 -0.08 c-0.08 0 -0.2 0.2 -0.2 0.32 l0 0.04 z M31.374000000000002 22.4 c0.08 0 0.08 -0.04 0.08 -0.08 c0 -0.08 -0.04 -0.12 -0.08 -0.12 c0 0 -0.04 0.04 -0.04 0.12 l0 0.04 z M28.894000000000002 22.72 l-0.04 -0.2 c0 -0.08 0 -0.12 0.04 -0.16 l0.08 0 l0.04 0.08 l-0.04 0.2 c-0.04 0.04 -0.04 0.08 -0.08 0.08 z M31.934 22.84 c-0.04 0 -0.08 -0.04 -0.08 -0.08 c0 -0.08 0 -0.16 0.04 -0.2 l0.04 -0.08 l0 -0.08 s0.04 -0.04 0.12 -0.04 l0.08 0 c0.08 0 0.12 0 0.12 0.08 l-0.12 0.2 z M30.254 23.24 c0.04 0 0.04 -0.04 0.04 -0.16 s0 -0.24 0.04 -0.24 s0.04 -0.04 0.04 -0.08 c0 -0.08 -0.08 -0.24 -0.16 -0.32 c-0.04 0 -0.04 0.08 -0.04 0.16 l0 0.12 c0 0.08 -0.04 0.12 -0.16 0.16 s-0.2 0.12 -0.2 0.2 l0.08 0.04 l0.16 0 l0.16 0.08 z M29.974000000000004 22.68 c0.08 -0.04 0.12 -0.08 0.12 -0.12 l-0.16 -0.04 c-0.08 0 -0.12 0.04 -0.12 0.12 c0 0.04 0.04 0.04 0.08 0.04 l0.08 0 z M30.574 23.12 l0.08 -0.16 c0.08 -0.16 0.12 -0.32 0.12 -0.36 l-0.04 -0.08 c-0.04 0 -0.08 0.16 -0.16 0.36 l-0.04 0.24 l0.04 0 z M19.134 22.64 l0.04 -0.04 l0 -0.04 l-0.08 -0.04 c-0.04 0 -0.04 0 -0.04 0.04 l0 0.04 z M30.974000000000004 22.92 l0.04 -0.08 l-0.08 -0.12 c0 -0.04 0 -0.04 -0.04 -0.04 l0 0.08 z M31.454 22.96 l0.04 -0.08 l0 -0.04 c0 -0.04 -0.08 -0.12 -0.16 -0.16 l-0.08 0 l-0.04 0.04 l0.04 0.08 c0.04 0.08 0.12 0.16 0.2 0.16 z M32.654 23 c0.08 -0.04 0.08 -0.12 0.08 -0.16 l-0.04 -0.08 l-0.08 0.04 c-0.04 0.04 -0.04 0.12 -0.04 0.16 l0.04 0.04 l0.04 0 z M28.374000000000002 23.32 l-0.04 -0.04 c0 -0.08 0.2 -0.4 0.28 -0.44 l0.04 0 l0 0.04 l-0.12 0.28 c-0.04 0.08 -0.12 0.16 -0.16 0.16 z M29.574 23.48 l0.04 -0.04 c0.04 -0.04 0.04 -0.08 0.04 -0.16 l0 -0.08 c0 -0.08 -0.04 -0.12 -0.04 -0.12 l-0.04 0.08 l-0.04 0.2 c0 0.08 0 0.12 0.04 0.12 z M32.494 23.72 c0.04 0 0.04 -0.04 0.04 -0.2 l0.04 -0.24 l-0.04 -0.12 c-0.04 0 -0.08 0.16 -0.08 0.32 l0 0.16 z M30.814 23.48 c0.04 0 0.08 -0.08 0.12 -0.16 l0.04 -0.12 l-0.04 -0.04 c-0.08 0 -0.12 0.08 -0.12 0.16 l0 0.16 z M29.934 23.76 c0.08 0 0.16 -0.12 0.2 -0.28 l0 -0.2 c-0.08 0 -0.24 0.28 -0.24 0.4 l0 0.04 z M29.614 23.96 l0.08 -0.04 l0.04 -0.24 l-0.08 -0.04 l-0.04 0 c-0.04 0 -0.08 0.04 -0.08 0.16 l0 0.08 c0.04 0.08 0.04 0.08 0.08 0.08 z M28.134 23.92 l0 -0.12 c0.04 -0.08 0.04 -0.12 0.08 -0.12 l0.04 0.04 l-0.04 0.08 c0 0.04 -0.04 0.12 -0.08 0.12 z M30.254 23.88 l0.04 -0.08 l-0.04 -0.08 l-0.04 0 c-0.04 0 -0.04 0 -0.04 0.08 c0.04 0.04 0.04 0.08 0.08 0.08 z M30.094 24.119999999999997 l0.04 -0.04 l0 -0.04 l-0.08 -0.04 l-0.08 0.04 c0 0.04 0.04 0.08 0.12 0.08 z M18.334000000000003 24.52 c0.04 0 0.04 -0.08 0.04 -0.16 l0 -0.24 l-0.04 0 c-0.08 0 -0.12 0.08 -0.12 0.2 l0.04 0.12 z M31.174 24.32 c0.04 0 0.08 -0.04 0.08 -0.08 c-0.04 -0.08 -0.04 -0.12 -0.08 -0.12 l-0.08 0.12 c0 0.04 0 0.08 0.08 0.08 z M28.974000000000004 24.560000000000002 l0.16 -0.32 c-0.04 0 -0.04 0.04 -0.08 0.08 c-0.08 0.08 -0.12 0.16 -0.12 0.2 s0 0.04 0.04 0.04 z M31.374000000000002 24.4 l0.12 -0.04 c0.04 -0.04 0.08 -0.04 0.08 -0.08 l0 -0.04 l-0.04 0 s-0.08 0 -0.12 0.08 z M30.294000000000004 24.72 c0.04 -0.04 0.08 -0.04 0.08 -0.08 l0 -0.08 c0 -0.04 0.08 -0.12 0.16 -0.2 l0.12 -0.12 l-0.16 0 c-0.12 0.04 -0.24 0.12 -0.32 0.28 l-0.04 0.16 c0 0.04 0.04 0.04 0.16 0.04 z M32.294000000000004 24.52 c0.04 0 0.04 -0.04 0.04 -0.04 l0 -0.04 c0 -0.08 -0.04 -0.12 -0.12 -0.12 c-0.04 0 -0.04 0 -0.04 0.04 l0 0.08 c0 0.04 0.04 0.08 0.12 0.08 z M30.894000000000002 24.64 c0.08 0 0.2 -0.04 0.2 -0.08 c0 -0.08 -0.08 -0.08 -0.2 -0.08 c-0.16 0 -0.24 0.04 -0.24 0.08 c0.04 0.04 0.12 0.08 0.24 0.08 z M27.854 24.8 l-0.04 0 c-0.04 0 -0.08 -0.04 -0.08 -0.08 l0 -0.08 c0 -0.08 0 -0.12 0.04 -0.12 c0.08 0 0.12 0.08 0.12 0.12 l0 0.04 z M20.694000000000003 24.759999999999998 c0.04 0 0.08 -0.04 0.08 -0.12 l0.04 -0.08 l-0.04 -0.04 c-0.04 0 -0.04 0.08 -0.08 0.12 l0 0.12 z M29.254 24.84 l0 -0.04 l-0.04 -0.12 l-0.04 0 l0 0.08 l0.04 0.08 l0.04 0 z M30.374000000000002 25.92 c0.12 0 0.16 -0.12 0.28 -0.36 s0.24 -0.36 0.28 -0.36 l0.04 0.04 l-0.04 0.16 c0 0.12 0 0.28 0.04 0.32 l0.04 0.04 l0 -0.16 c0 -0.08 0 -0.12 0.04 -0.12 s0.12 -0.16 0.16 -0.32 l0.08 -0.28 l-0.04 0 l-0.2 0.16 c-0.04 0 -0.08 0 -0.08 -0.04 l-0.08 -0.04 c-0.16 0 -0.48 0.2 -0.48 0.36 l0.04 0.28 c0 0.08 -0.04 0.08 -0.08 0.08 l-0.16 -0.04 l-0.04 0.04 l0.08 0.16 z M29.614 25.16 l0.08 -0.08 c0 -0.08 -0.04 -0.12 -0.08 -0.12 s-0.08 0.04 -0.08 0.12 c0 0.04 0.04 0.08 0.08 0.08 z M29.894000000000002 25.560000000000002 l0.08 -0.04 l0 -0.08 l0.04 -0.08 c0.08 -0.04 0.12 -0.12 0.12 -0.2 c0 -0.12 -0.04 -0.2 -0.12 -0.2 s-0.28 0.44 -0.28 0.56 c0 0.04 0.08 0.04 0.16 0.04 z M28.894000000000002 25.6 c0.04 0 0.12 -0.08 0.16 -0.12 l0 -0.08 c0 -0.08 -0.04 -0.12 -0.16 -0.2 l-0.16 -0.08 l-0.08 0.04 c0 0.08 0.04 0.12 0.12 0.12 s0.12 0 0.12 0.08 l-0.08 0.16 c0 0.04 0.04 0.08 0.08 0.08 z M27.214000000000002 26 c-0.04 0 -0.04 0 -0.04 -0.04 c0 -0.08 0.08 -0.32 0.2 -0.52 l0.2 -0.28 c0.04 0 0.04 0.04 0.04 0.08 c-0.04 0.2 -0.12 0.56 -0.2 0.56 l0 -0.04 c-0.04 0 -0.08 0.04 -0.12 0.12 z M29.414 25.4 l0.08 -0.04 l-0.04 -0.04 c0 -0.04 -0.04 -0.04 -0.04 -0.04 c-0.04 0 -0.08 0 -0.08 0.04 s0 0.08 0.08 0.08 z M28.494 25.72 l0.08 -0.12 c0 -0.04 0 -0.12 -0.04 -0.12 l-0.08 0.12 c0 0.04 0 0.12 0.04 0.12 z M31.734 25.96 l-0.08 -0.04 c-0.08 -0.04 -0.12 -0.08 -0.12 -0.12 l0.08 -0.16 c0.04 -0.08 0.08 -0.12 0.12 -0.12 l0.04 0 c0.04 0 0.04 0.04 0.04 0.12 l0 0.16 c0 0.12 0 0.16 -0.08 0.16 z M18.294 25.8 l0.04 -0.12 l-0.04 -0.04 c-0.04 0 -0.04 -0.04 -0.04 -0.04 c-0.04 0 -0.04 0.04 -0.04 0.12 z M20.134 25.8 l0 -0.04 c0 -0.04 -0.04 -0.08 -0.12 -0.12 l-0.04 0 c-0.04 0 -0.04 0.04 -0.04 0.04 c0.04 0.08 0.08 0.12 0.12 0.12 l0.08 0 z M29.814 26.240000000000002 c0.04 0 0.04 0 0.04 -0.04 l0 -0.08 l-0.04 -0.04 c0 -0.04 0.04 -0.08 0.08 -0.12 c0.08 -0.04 0.12 -0.08 0.12 -0.12 c0 -0.08 -0.08 -0.12 -0.24 -0.12 c-0.08 0 -0.16 0.04 -0.16 0.16 l0.04 0.08 l-0.08 0.04 l-0.08 0 c-0.04 0 -0.08 0 -0.08 0.04 c0 0 0 0.04 0.08 0.08 c0.12 0.08 0.24 0.12 0.32 0.12 z M28.854 26 l0 -0.04 l-0.08 -0.16 l-0.08 -0.04 l-0.04 0 s-0.04 0 -0.04 0.04 l0 0.12 l0.12 -0.08 l0.04 0.08 c0.04 0.04 0.04 0.08 0.08 0.08 z M30.854 26 l0.04 -0.08 l-0.04 -0.08 l-0.04 0 c-0.04 0 -0.04 0 -0.04 0.08 c0.04 0.04 0.04 0.08 0.08 0.08 z M29.254 26.04 l0 -0.08 s-0.04 -0.08 -0.12 -0.12 l-0.08 0 l0.04 0.08 z M28.734 26.439999999999998 c0.2 0 0.32 0 0.32 -0.04 l-0.12 -0.12 c-0.08 -0.04 -0.2 -0.08 -0.28 -0.08 l-0.08 0 c-0.04 0 -0.08 -0.04 -0.12 -0.08 s-0.08 -0.08 -0.12 -0.08 l-0.08 0.04 l-0.04 0.12 c0 0.12 0.16 0.2 0.52 0.24 z M29.974000000000004 27.16 l0.04 -0.08 c0.04 -0.08 0.04 -0.2 0.04 -0.24 l-0.04 -0.04 l-0.12 0.04 l0 -0.04 c0 -0.04 0.04 -0.08 0.12 -0.08 l0.12 0 c0.08 0 0.12 -0.04 0.12 -0.12 s0.08 -0.16 0.2 -0.16 c0.08 0 0.16 -0.04 0.2 -0.08 l-0.04 -0.08 l-0.12 0.04 c-0.04 0 -0.08 -0.04 -0.12 -0.16 c-0.04 -0.08 -0.04 -0.12 -0.08 -0.12 c-0.04 0.04 -0.08 0.08 -0.12 0.24 c-0.12 0.16 -0.24 0.28 -0.32 0.28 c-0.12 0 -0.16 0.04 -0.16 0.12 l0.12 0.28 c0.08 0.16 0.12 0.2 0.16 0.2 z M27.054000000000002 26.439999999999998 c-0.04 0 -0.08 -0.08 -0.08 -0.16 l0 -0.08 c0 -0.04 0 -0.08 0.04 -0.08 s0.08 0.08 0.08 0.16 z M30.454 26.759999999999998 c0.04 0 0.08 -0.04 0.08 -0.08 c0 -0.08 0 -0.12 -0.08 -0.12 c-0.04 0 -0.08 0.04 -0.08 0.12 z M27.214000000000002 28.560000000000002 l0.16 -0.08 c0.08 -0.08 0.12 -0.16 0.12 -0.24 l0 -0.16 c0 -0.16 0.08 -0.32 0.16 -0.32 l0.12 0.04 l0 -0.2 c0 -0.04 0 -0.04 0.04 -0.04 l0.28 0.12 l-0.08 -0.24 l0.12 0 c0.04 0 0.08 0 0.08 -0.04 l0.04 -0.08 l-0.16 0.04 l-0.08 -0.04 l0 -0.04 c0 -0.08 0.08 -0.12 0.16 -0.16 c0.12 -0.04 0.2 -0.08 0.2 -0.16 l-0.08 -0.04 l-0.12 0.04 c-0.08 0 -0.12 -0.04 -0.12 -0.12 l0.12 -0.24 l-0.04 -0.04 l-0.04 0.04 c-0.12 0.08 -0.56 0.96 -0.8 1.68 z M26.694000000000003 27.04 l-0.04 -0.04 l0 -0.04 c0 -0.12 0.12 -0.32 0.2 -0.32 s0.08 0.08 0.08 0.16 c-0.04 0.12 -0.16 0.24 -0.24 0.24 z M29.094 27.52 c0.08 0 0.12 -0.04 0.12 -0.08 l0 -0.04 c0 -0.04 0.04 -0.12 0.12 -0.12 s0.12 -0.04 0.12 -0.04 l0 -0.04 l-0.04 -0.08 l-0.12 0.04 l0.04 -0.12 c0.04 -0.08 0.12 -0.12 0.16 -0.12 l0.08 0.04 l0 -0.08 c0 -0.08 -0.08 -0.08 -0.12 -0.12 c-0.08 0 -0.2 0.04 -0.28 0.08 c-0.04 0.04 -0.08 0.08 -0.08 0.12 l0.04 0.16 c0 0.04 -0.04 0.08 -0.08 0.12 c-0.08 0.04 -0.12 0.08 -0.12 0.16 c0 0.04 0.08 0.12 0.16 0.12 z M18.294 27.28 l0 -0.08 c0 -0.08 -0.08 -0.12 -0.12 -0.12 l-0.08 0.04 l0.04 0.08 z M26.054000000000002 28.439999999999998 l-0.04 -0.04 c0 -0.12 0.48 -1.16 0.56 -1.16 l0 0.04 c0 0.08 -0.08 0.32 -0.2 0.6 c-0.16 0.4 -0.28 0.56 -0.32 0.56 z M19.894000000000002 27.6 c0 -0.04 0 -0.12 -0.04 -0.16 l-0.04 0 l0 0.08 l0.04 0.08 l0.04 0 z M30.654000000000003 27.72 c0.04 0 0.04 -0.04 0.04 -0.08 l0 -0.04 l-0.04 -0.08 c-0.04 0 -0.08 0.04 -0.08 0.08 l0 0.04 c0 0.04 0.04 0.08 0.08 0.08 z M29.094 28.04 c0.12 0 0.28 -0.04 0.32 -0.08 c0 -0.04 0.08 -0.08 0.16 -0.08 c0.04 0 0.08 -0.08 0.08 -0.2 c0 -0.04 0 -0.12 -0.04 -0.12 l-0.16 0.04 c-0.12 0.04 -0.16 0.16 -0.16 0.24 l0 0.04 l-0.24 -0.08 c-0.08 0 -0.12 0.04 -0.16 0.08 l-0.04 0.08 c0 0.08 0.08 0.08 0.24 0.08 z M29.894000000000002 28.16 c0.04 0 0.08 -0.08 0.08 -0.12 l-0.08 -0.12 c-0.04 0 -0.08 0.08 -0.08 0.12 l0 0.04 c0 0.04 0.04 0.08 0.08 0.08 z M27.814 30.04 l0.08 -0.04 l0.52 -0.08 l-0.32 -0.16 c0 -0.04 0.04 -0.08 0.12 -0.12 c0.08 -0.08 0.12 -0.12 0.12 -0.16 l0 -0.12 c0 -0.04 0.04 -0.08 0.08 -0.08 c0.08 -0.04 0.12 -0.08 0.12 -0.16 l-0.04 -0.2 c0 -0.2 0.2 -0.44 0.44 -0.44 c0.08 0 0.16 -0.04 0.16 -0.12 c-0.04 -0.04 -0.08 -0.04 -0.12 -0.04 l-0.12 0 c-0.2 0 -0.4 0.08 -0.4 0.16 l-0.12 0.28 l-0.04 0.12 c0 0.04 0 0.08 0.08 0.12 l0.08 0.08 l-0.16 0.04 c-0.12 0.04 -0.24 0.16 -0.28 0.36 s-0.12 0.36 -0.2 0.36 c-0.04 0 -0.08 0.08 -0.08 0.12 s0.04 0.08 0.08 0.08 z M18.174000000000003 28.72 l0.04 -0.12 l0 -0.08 c0 -0.08 -0.04 -0.12 -0.08 -0.12 l-0.04 0 c-0.04 0.04 -0.04 0.16 -0.04 0.24 c0.04 0.04 0.04 0.08 0.08 0.08 l0.04 0 z M30.374000000000002 29.16 c-0.04 0 -0.08 -0.04 -0.12 -0.12 c-0.04 -0.04 -0.08 -0.16 -0.08 -0.24 c0 -0.12 0.08 -0.28 0.12 -0.28 l0.08 0 c0.08 0.04 0.16 0.2 0.16 0.32 s-0.04 0.2 -0.08 0.24 z M28.894000000000002 29.32 c0.04 0 0.12 -0.04 0.2 -0.2 l0.08 -0.2 l-0.04 -0.08 l0.04 -0.12 l0.04 -0.16 c-0.04 0 -0.16 0.12 -0.28 0.32 c-0.08 0.16 -0.12 0.28 -0.12 0.36 s0.04 0.08 0.08 0.08 z M25.934 28.8 c-0.08 0 -0.08 -0.08 -0.08 -0.12 l0.08 -0.12 l0.08 0.12 c0 0.04 -0.04 0.12 -0.08 0.12 z M28.694000000000003 28.96 l0.04 -0.08 l-0.08 -0.08 c-0.04 0 -0.04 0.04 -0.04 0.08 c0.04 0.04 0.04 0.08 0.08 0.08 z M24.694000000000003 31.32 c-0.04 0 -0.08 0 -0.08 -0.08 l0 -0.08 c0 -0.04 0 -0.04 0.04 -0.04 s0.28 -0.52 0.56 -1.12 s0.52 -1.12 0.6 -1.12 l0 0.04 c0 0.12 -0.28 0.84 -0.48 1.12 c-0.04 0.08 -0.08 0.2 -0.08 0.28 l0 0.04 c0 0.08 0 0.12 -0.04 0.12 s-0.16 0.2 -0.24 0.44 c-0.12 0.28 -0.24 0.4 -0.28 0.4 z M29.494 29.08 l0 -0.04 l-0.04 -0.12 c-0.04 0 -0.04 0.04 -0.04 0.08 l0.04 0.08 l0.04 0 z M27.694000000000003 29.32 c0.08 0 0.2 -0.08 0.24 -0.16 l0.04 -0.16 l-0.04 -0.04 l-0.04 0 c-0.04 0 -0.12 0.04 -0.2 0.12 l-0.08 0.2 c0 0.04 0.04 0.04 0.08 0.04 z M29.254 29.6 c0.08 -0.04 0.08 -0.12 0.08 -0.2 l-0.04 -0.04 l-0.08 0 l-0.04 0.12 l0 0.08 c0 0.04 0.04 0.04 0.08 0.04 z M29.814 29.6 l0 -0.04 l-0.04 -0.12 l-0.04 0 l0 0.08 l0.04 0.08 l0.04 0 z M26.574 30.08 c0.04 0 0.12 -0.12 0.16 -0.2 l0.08 -0.24 l-0.04 -0.08 c-0.04 0 -0.08 0.04 -0.16 0.12 c-0.08 0.12 -0.12 0.24 -0.12 0.32 c0 0.04 0.04 0.08 0.08 0.08 z M28.654000000000003 29.84 c0.08 0 0.16 -0.04 0.16 -0.12 l0 -0.04 c0 -0.08 -0.04 -0.08 -0.08 -0.12 l-0.12 0.08 c-0.08 0.04 -0.16 0.12 -0.16 0.16 s0.12 0.04 0.2 0.04 z M29.534000000000002 29.96 c0.04 0 0.12 -0.04 0.12 -0.12 l0 -0.04 c0 -0.04 0 -0.04 -0.04 -0.04 c-0.08 0 -0.12 0.04 -0.12 0.08 l0 0.04 c0 0.04 0 0.08 0.04 0.08 z M27.054000000000002 31.72 c0 0 0.08 -0.04 0.16 -0.2 s0.16 -0.2 0.24 -0.2 l0.2 0 c0.12 0 0.16 -0.08 0.16 -0.28 c0.04 -0.24 0.08 -0.32 0.16 -0.32 l0.08 0 c0.12 0 0.28 -0.04 0.36 -0.16 c0.08 -0.08 0.16 -0.12 0.2 -0.12 l0.08 0 c0.16 0 0.44 -0.4 0.44 -0.6 l0 -0.04 l-0.04 0 s-0.08 0.08 -0.12 0.2 c-0.08 0.16 -0.16 0.28 -0.24 0.28 c-0.04 0 -0.08 -0.08 -0.08 -0.16 l0 -0.08 l-0.24 0.04 c-0.12 0.04 -0.16 0.08 -0.16 0.12 l0.08 0.12 c0 0.04 -0.08 0.12 -0.24 0.16 c-0.28 0.08 -0.44 0.24 -0.44 0.44 l0.04 0.12 c0 0.04 -0.04 0.08 -0.12 0.12 l-0.04 0 c-0.08 0 -0.08 -0.04 -0.08 -0.16 c0 -0.04 0 -0.12 0.04 -0.16 l0.04 -0.12 l-0.08 -0.04 l-0.08 0.04 l0 0.04 c0 0.08 -0.08 0.28 -0.2 0.48 s-0.16 0.36 -0.16 0.44 c0 0.04 0 0.04 0.04 0.04 z M27.014000000000003 30.04 c0.04 0 0.04 -0.04 0.04 -0.04 l0 -0.04 c0 -0.08 -0.04 -0.12 -0.12 -0.12 c-0.04 0 -0.04 0 -0.04 0.04 l0 0.08 c0 0.04 0.04 0.08 0.12 0.08 z M29.414 30.439999999999998 l0 -0.04 c0.04 -0.08 0.12 -0.12 0.2 -0.12 c0.12 0 0.24 -0.08 0.24 -0.12 s-0.04 -0.08 -0.16 -0.08 c-0.16 0 -0.32 0.12 -0.32 0.28 z M27.734 30.28 c0.04 0 0.04 -0.04 0.04 -0.04 l0 -0.04 l-0.08 -0.04 c-0.04 0 -0.04 0.04 -0.04 0.04 l0 0.04 z M27.174 30.48 l0.08 -0.04 l0 -0.04 l-0.16 0 c0 0.04 0.04 0.08 0.08 0.08 z M19.734 30.68 c0.04 0 0.08 -0.04 0.08 -0.08 l0 -0.12 c-0.04 0 -0.08 0.04 -0.08 0.12 l-0.04 0.04 z M29.254 30.880000000000003 l0 -0.04 l-0.04 -0.12 c-0.04 0 -0.04 0.04 -0.04 0.08 l0.04 0.08 l0.04 0 z M28.094 31 c0.04 0 0.04 -0.04 0.04 -0.04 l0 -0.04 c0 -0.08 -0.04 -0.12 -0.12 -0.12 c-0.04 0 -0.04 0 -0.04 0.04 l0 0.08 c0 0.04 0.04 0.08 0.12 0.08 z M28.174 31.64 c0.08 0 0.16 -0.04 0.2 -0.12 l0.04 -0.2 l0 -0.08 c0 -0.08 -0.04 -0.12 -0.04 -0.12 s-0.04 0.04 -0.04 0.12 c-0.04 0.12 -0.12 0.2 -0.16 0.2 s-0.08 -0.04 -0.08 -0.12 l0 -0.04 c0 -0.04 0 -0.04 -0.04 -0.04 c-0.08 0 -0.08 0.08 -0.08 0.2 c0.04 0.12 0.12 0.2 0.2 0.2 z M26.214000000000002 31.72 l0.08 -0.16 c0.08 -0.12 0.16 -0.24 0.24 -0.24 c0.04 0 0.08 -0.04 0.08 -0.08 c-0.04 -0.08 -0.04 -0.08 -0.08 -0.08 c-0.12 0 -0.28 0.2 -0.32 0.4 l-0.04 0.16 l0.04 0 z M28.814 31.560000000000002 c0.04 0 0.08 -0.08 0.12 -0.2 l0.04 -0.12 l-0.08 0.08 c-0.08 0.08 -0.12 0.16 -0.12 0.2 s0 0.04 0.04 0.04 z M26.054000000000002 31.52 l0.04 -0.08 l-0.08 -0.08 c-0.04 0 -0.04 0.04 -0.04 0.08 c0.04 0.04 0.04 0.08 0.08 0.08 z M25.774 31.64 c0.04 0 0.04 -0.04 0.08 -0.16 c0 -0.08 0 -0.12 -0.04 -0.12 c0 0 -0.04 0 -0.04 0.04 c-0.04 0.04 -0.04 0.08 -0.04 0.16 z M27.654000000000003 31.96 l0.12 -0.16 c0.08 -0.08 0.16 -0.24 0.16 -0.28 c-0.04 -0.04 -0.04 -0.08 -0.08 -0.08 l-0.04 0 c-0.12 0 -0.2 0.16 -0.2 0.32 z M26.574 31.560000000000002 c0.04 0 0.08 0 0.08 -0.04 l-0.04 -0.04 c0 -0.04 -0.04 -0.04 -0.04 -0.04 l-0.08 0.04 c0 0.04 0.04 0.08 0.08 0.08 z M24.494 31.72 c-0.04 0 -0.08 -0.04 -0.08 -0.08 c0.04 -0.12 0.12 -0.2 0.2 -0.2 l0.04 0.08 l0 0.04 c0 0.04 -0.04 0.08 -0.08 0.12 z M27.294000000000004 32.08 c0.04 0 0.08 -0.04 0.08 -0.12 c-0.04 -0.04 -0.08 -0.08 -0.16 -0.08 c-0.04 0 -0.04 0 -0.04 0.04 l0 0.04 c0 0.08 0.04 0.12 0.12 0.12 z M25.614 32.2 c0.08 0 0.16 -0.08 0.2 -0.12 l0 -0.08 c0 -0.08 0 -0.08 -0.04 -0.12 c-0.08 0 -0.12 0.04 -0.2 0.12 l-0.08 0.16 c0 0.04 0.04 0.04 0.12 0.04 z M26.774 32.24 l0.12 -0.04 l0.08 -0.24 c0 -0.04 -0.04 -0.04 -0.04 -0.04 c-0.04 0 -0.08 0 -0.12 0.04 l-0.08 0.24 z M24.094 32.480000000000004 l0.04 -0.24 c0.08 -0.16 0.16 -0.28 0.2 -0.28 l-0.04 0.28 c-0.08 0.12 -0.16 0.24 -0.2 0.24 z M28.494 32.68 c0.08 0 0.08 -0.08 0.08 -0.2 l0 -0.28 l0.04 -0.04 l-0.04 -0.04 l-0.08 0 c-0.08 0.04 -0.16 0.16 -0.16 0.28 c0 0.08 0.04 0.16 0.08 0.24 z M27.174 32.76 c0.04 0 0.16 -0.08 0.24 -0.2 l0.16 -0.36 c-0.12 0 -0.4 0.44 -0.4 0.56 z M26.134 32.68 l0.04 -0.08 l-0.04 -0.08 l-0.04 0 c-0.04 0 -0.04 0.04 -0.04 0.08 c0.04 0.04 0.04 0.08 0.08 0.08 z M27.694000000000003 32.8 l0.08 -0.08 l0 -0.12 c-0.04 0 -0.08 0.04 -0.12 0.12 c0 0.04 0 0.08 0.04 0.08 z M25.334000000000003 32.92 l0.08 -0.12 c0 -0.04 0 -0.08 -0.08 -0.08 c-0.04 0 -0.08 0.04 -0.08 0.08 c0.04 0.08 0.04 0.12 0.08 0.12 z M25.734 33.04 c0.04 0 0.08 -0.04 0.08 -0.12 l-0.08 -0.16 l-0.04 0 c-0.04 0 -0.04 0.04 -0.04 0.12 z M28.054000000000002 33.2 l0.08 -0.08 l0.12 -0.24 l-0.04 -0.04 l-0.12 0.08 l-0.08 0.24 z M27.094 33.24 c0.04 0 0.04 -0.04 0.04 -0.08 l0 -0.04 l-0.04 -0.08 c-0.04 0 -0.08 0.04 -0.08 0.08 l0 0.04 c0 0.04 0.04 0.08 0.08 0.08 z M24.614 34 c0.04 0 0.08 -0.04 0.08 -0.12 l0.04 -0.08 l-0.04 -0.04 c-0.04 0 -0.08 0.08 -0.08 0.12 l0 0.12 z M26.894000000000002 34.08 c0.08 -0.04 0.12 -0.12 0.12 -0.2 c0 -0.04 0 -0.08 -0.04 -0.08 l-0.04 0 c-0.08 0.04 -0.12 0.12 -0.12 0.2 l0.04 0.08 l0.04 0 z M26.054000000000002 33.96 l0.04 -0.08 l-0.04 -0.08 l-0.04 0 c-0.04 0 -0.04 0.04 -0.04 0.08 c0.04 0.04 0.04 0.08 0.08 0.08 z M23.254 34.6 c0.04 0 0.24 -0.2 0.32 -0.44 l0.12 -0.28 l0 -0.04 c-0.04 0 -0.16 0.08 -0.28 0.28 l-0.2 0.4 l0 0.04 z M27.694000000000003 34.24 c0.12 -0.04 0.16 -0.12 0.16 -0.16 c0 -0.08 -0.08 -0.16 -0.12 -0.16 c-0.08 0 -0.12 0.08 -0.16 0.16 l-0.04 0.12 c0 0.04 0.04 0.04 0.08 0.04 l0.08 0 z M26.614 34.32 c0.04 0 0.08 -0.08 0.08 -0.16 l-0.04 -0.12 c-0.04 0 -0.08 0.04 -0.08 0.08 c-0.08 0.04 -0.12 0.12 -0.12 0.16 z M24.854000000000003 34.4 c0.04 0 0.12 -0.08 0.12 -0.16 l0 -0.12 c-0.04 0 -0.04 0.04 -0.08 0.08 l-0.12 0.16 c0 0.04 0.04 0.04 0.08 0.04 z M24.654000000000003 34.72 c0.08 0 0.08 -0.04 0.08 -0.08 c0 -0.08 -0.04 -0.12 -0.08 -0.12 l-0.08 0.12 c0 0.04 0.04 0.08 0.08 0.08 z M25.614 35.480000000000004 c0.04 0 0.08 -0.04 0.08 -0.12 l-0.08 -0.08 c-0.04 0 -0.08 0.04 -0.08 0.08 c0 0.08 0 0.12 0.08 0.12 z M26.534000000000002 36.52 c0.04 0 0.08 -0.04 0.08 -0.08 c-0.04 -0.08 -0.08 -0.12 -0.12 -0.12 s-0.08 0.04 -0.08 0.08 l0 0.04 c0 0.04 0.08 0.08 0.12 0.08 z"></path></g></svg>